<svg width="54" height="54" viewBox="0 0 54 54" fill="none" xmlns="http://www.w3.org/2000/svg">
<path d="M18.3594 22.0462C18.3594 22.0462 18.4194 22.0662 18.4394 22.0762C19.1194 22.3562 19.2994 23.2062 19.7094 23.8162C20.1794 24.5262 20.9794 24.9162 21.7594 25.1962C21.8594 25.2262 22.3094 25.3162 22.3494 25.3962C22.4294 25.5762 21.9294 25.4862 21.8394 25.4762C21.3294 25.4362 20.8194 25.3462 20.3294 25.1962C19.8494 25.0562 19.3094 24.8662 18.8694 25.0962C18.6794 25.1962 18.5394 25.3462 18.3794 25.4962C17.6594 26.1562 16.7094 26.4962 15.7594 26.6762C14.5094 26.9162 13.2094 26.9262 11.9794 26.5962C10.7494 26.2662 9.59935 25.6162 8.75935 24.6562C8.47935 24.3462 8.22935 23.9762 8.21935 23.5562C8.19935 22.9562 8.67935 22.4262 9.23935 22.2062C9.79935 21.9862 10.4194 22.0062 11.0194 22.0262C13.1294 22.1062 15.2494 22.2162 17.3494 22.0162C17.6894 21.9862 18.0394 21.9462 18.3594 22.0462Z" fill="#EFEEDF"/>
<path d="M18.5791 21.3965C19.4991 21.6765 19.8591 22.5765 20.2391 23.2265C20.6691 24.0065 21.6991 24.4165 22.5491 24.6865C23.0691 24.8665 23.2891 25.6265 22.7991 26.0165C22.5091 26.2465 22.1891 26.2065 21.9791 26.1865C21.5291 26.1265 21.0791 26.0665 20.6491 25.9465C20.1291 25.8465 19.5391 25.4865 19.1291 25.6165C18.4791 26.2065 17.2491 26.8865 16.3091 27.0065C13.5791 27.5865 10.4391 26.9565 8.5691 24.7765C7.1691 23.3265 8.5891 21.6965 10.2691 21.7065C12.6691 21.6565 14.9591 21.7065 17.3091 21.3765C17.6391 21.3365 18.0591 21.2465 18.5891 21.3965H18.5791ZM18.1491 22.6865C17.2691 22.5565 15.3991 22.7665 14.3191 22.6265C12.9591 22.5465 11.5891 22.3865 10.2791 22.3265C9.6491 22.3065 9.0291 22.4765 8.6791 22.9365C7.6791 24.4765 10.9991 26.1665 12.2491 26.3565C14.5091 26.7465 16.9091 26.3365 18.5291 24.6265C19.3791 24.1065 20.1791 24.5465 20.9391 24.6765C21.2791 24.7565 21.9791 24.7965 22.1491 24.8165C21.6391 24.9165 21.4891 25.6865 21.9491 25.9665C20.9891 25.8365 19.5191 25.1265 18.9391 23.9665C18.5991 23.2565 18.3891 22.7465 18.1591 22.6965L18.1491 22.6865Z" fill="#171714"/>
<path d="M17.2607 23.8064C15.1007 24.3864 12.8707 24.2364 10.7007 23.8464C10.5807 23.8264 10.5107 23.7064 10.5307 23.5964C10.5507 23.4864 10.6607 23.4064 10.7707 23.4264C12.3407 23.6264 13.9307 23.6464 15.4907 23.3964C16.0107 23.3064 16.5407 23.1864 16.9907 23.0264C17.5207 22.8364 17.8007 23.6564 17.2507 23.8164L17.2607 23.8064Z" fill="#171714"/>
<path d="M16.8385 25.1867C15.4485 25.3167 14.0885 25.5467 12.6985 25.2167C12.6385 25.1967 12.5985 25.1367 12.6185 25.0767C12.6385 25.0167 12.6885 24.9867 12.7485 24.9967C14.0385 25.1167 15.4085 24.6767 16.6685 24.3667C17.2385 24.2067 17.4285 25.1067 16.8385 25.1867Z" fill="#171714"/>
<path d="M27.668 11.0064C27.668 11.0064 33.368 10.6364 36.328 9.42645C42.418 6.93645 49.248 15.7964 44.288 24.4164" fill="#FBD12B"/>
<path d="M27.668 11.0064C27.668 11.0064 33.368 10.6364 36.328 9.42645C42.418 6.93645 49.248 15.7964 44.288 24.4164" stroke="#171714" stroke-width="1.3" stroke-linecap="round" stroke-linejoin="round"/>
<path d="M40.4996 16.3164C38.7896 14.4164 36.6496 12.8664 34.2996 11.8664C33.5496 11.5464 32.7796 11.2864 31.9996 11.0964C24.8096 8.98641 19.0296 10.0864 19.0296 10.0864C18.3296 10.0864 17.6596 10.2164 17.0096 10.4064V10.3664C17.0096 10.3664 16.5296 10.5364 12.6096 11.8164C8.6896 13.0964 10.4696 14.2364 10.4696 14.2364C10.4896 14.2764 10.5396 14.2964 10.6096 14.3264C10.4796 14.4264 10.3596 14.5464 10.2396 14.7064C9.3796 15.8464 12.2496 20.0664 13.0896 21.2464C13.0896 21.2464 13.0896 21.2564 13.0996 21.2664C13.2296 21.4464 13.3096 21.5564 13.3096 21.5564V21.5264C14.1496 22.6364 15.2996 23.4964 16.6296 23.9864C16.2496 24.4864 16.6296 24.5564 19.8196 27.1364C21.4696 28.4664 23.7996 29.4964 26.0996 30.2564C27.2096 30.6164 28.3096 30.9164 29.3296 31.1564C30.1296 31.4164 30.9196 31.6764 31.6996 31.9964C33.0196 32.5364 34.3396 33.1964 35.3196 34.2464C35.7096 34.6564 36.0396 35.1564 36.0796 35.7264C36.1396 36.7064 35.3096 37.4764 34.5396 38.0864C33.4796 38.9164 32.1796 39.7564 30.8896 39.3964C30.1896 39.1964 29.6396 38.6764 28.9996 38.3364C28.3596 37.9964 27.4596 37.8964 26.9896 38.4464C26.2196 39.3364 27.3296 40.6464 27.3196 41.8164C27.3096 43.1164 25.9596 43.9364 25.1996 44.9964C24.5796 45.8664 24.3396 46.9864 24.5496 48.0364C24.6096 48.3464 24.7696 48.6964 25.0796 48.7264C25.1996 48.7364 25.3096 48.6964 25.4296 48.6564C27.8896 47.7064 29.4796 45.3064 31.7096 43.9064C33.4196 42.8364 35.4496 42.3964 37.2796 41.5264C41.3396 39.6064 44.1696 35.5364 44.9996 31.1264C44.9996 31.0764 45.0196 31.0264 45.0296 30.9664C45.0996 30.5964 45.1696 30.2364 45.2096 29.8664C45.6896 24.9764 43.7996 19.9864 40.5096 16.3364L40.4996 16.3164Z" fill="#EFEEDF"/>
<mask id="mask0_4115_3138" style="mask-type:luminance" maskUnits="userSpaceOnUse" x="10" y="9" width="36" height="40">
<path d="M40.4996 16.3164C38.7896 14.4164 36.6496 12.8664 34.2996 11.8664C33.5496 11.5464 32.7796 11.2864 31.9996 11.0964C24.8096 8.98641 19.0296 10.0864 19.0296 10.0864C18.3296 10.0864 17.6596 10.2164 17.0096 10.4064V10.3664C17.0096 10.3664 16.5296 10.5364 12.6096 11.8164C8.6896 13.0964 10.4696 14.2364 10.4696 14.2364C10.4896 14.2764 10.5396 14.2964 10.6096 14.3264C10.4796 14.4264 10.3596 14.5464 10.2396 14.7064C9.3796 15.8464 12.2496 20.0664 13.0896 21.2464C13.0896 21.2464 13.0896 21.2564 13.0996 21.2664C13.2296 21.4464 13.3096 21.5564 13.3096 21.5564V21.5264C14.1496 22.6364 15.2996 23.4964 16.6296 23.9864C16.2496 24.4864 16.6296 24.5564 19.8196 27.1364C21.4696 28.4664 23.7996 29.4964 26.0996 30.2564C27.2096 30.6164 28.3096 30.9164 29.3296 31.1564C30.1296 31.4164 30.9196 31.6764 31.6996 31.9964C33.0196 32.5364 34.3396 33.1964 35.3196 34.2464C35.7096 34.6564 36.0396 35.1564 36.0796 35.7264C36.1396 36.7064 35.3096 37.4764 34.5396 38.0864C33.4796 38.9164 32.1796 39.7564 30.8896 39.3964C30.1896 39.1964 29.6396 38.6764 28.9996 38.3364C28.3596 37.9964 27.4596 37.8964 26.9896 38.4464C26.2196 39.3364 27.3296 40.6464 27.3196 41.8164C27.3096 43.1164 25.9596 43.9364 25.1996 44.9964C24.5796 45.8664 24.3396 46.9864 24.5496 48.0364C24.6096 48.3464 24.7696 48.6964 25.0796 48.7264C25.1996 48.7364 25.3096 48.6964 25.4296 48.6564C27.8896 47.7064 29.4796 45.3064 31.7096 43.9064C33.4196 42.8364 35.4496 42.3964 37.2796 41.5264C41.3396 39.6064 44.1696 35.5364 44.9996 31.1264C44.9996 31.0764 45.0196 31.0264 45.0296 30.9664C45.0996 30.5964 45.1696 30.2364 45.2096 29.8664C45.6896 24.9764 43.7996 19.9864 40.5096 16.3364L40.4996 16.3164Z" fill="white"/>
</mask>
<g mask="url(#mask0_4115_3138)">
<path d="M20.2614 24.6165C20.2614 24.6165 20.6214 23.4965 24.4314 24.0465C33.1914 25.2965 37.1614 32.8865 36.3014 36.2665C36.3014 36.2665 32.9414 33.6465 28.5014 32.7065C24.0614 31.7665 17.4414 26.8365 17.4414 26.8365L18.0014 24.6165" fill="#FBD12B"/>
<path d="M24.3711 8.18656C24.3711 8.18656 28.0411 11.2066 27.4311 14.7466C26.9111 17.7666 37.2511 16.5866 40.6111 20.5366C43.9711 24.4766 44.7411 28.8066 43.7711 34.8466C43.3311 37.5966 48.8511 25.7566 48.8511 25.7566L42.5611 11.1966L26.1911 6.72656L24.3711 8.18656Z" fill="#178796"/>
</g>
<path d="M40.4996 16.3164C38.7896 14.4164 36.6496 12.8664 34.2996 11.8664C33.5496 11.5464 32.7796 11.2864 31.9996 11.0964C24.8096 8.98641 19.0296 10.0864 19.0296 10.0864C18.3296 10.0864 17.6596 10.2164 17.0096 10.4064V10.3664C17.0096 10.3664 16.5296 10.5364 12.6096 11.8164C8.6896 13.0964 10.4696 14.2364 10.4696 14.2364C10.4896 14.2764 10.5396 14.2964 10.6096 14.3264C10.4796 14.4264 10.3596 14.5464 10.2396 14.7064C9.3796 15.8464 12.2496 20.0664 13.0896 21.2464C13.0896 21.2464 13.0896 21.2564 13.0996 21.2664C13.2296 21.4464 13.3096 21.5564 13.3096 21.5564V21.5264C14.1496 22.6364 15.2996 23.4964 16.6296 23.9864C16.2496 24.4864 16.6296 24.5564 19.8196 27.1364C21.4696 28.4664 23.7996 29.4964 26.0996 30.2564C27.2096 30.6164 28.3096 30.9164 29.3296 31.1564C30.1296 31.4164 30.9196 31.6764 31.6996 31.9964C33.0196 32.5364 34.3396 33.1964 35.3196 34.2464C35.7096 34.6564 36.0396 35.1564 36.0796 35.7264C36.1396 36.7064 35.3096 37.4764 34.5396 38.0864C33.4796 38.9164 32.1796 39.7564 30.8896 39.3964C30.1896 39.1964 29.6396 38.6764 28.9996 38.3364C28.3596 37.9964 27.4596 37.8964 26.9896 38.4464C26.2196 39.3364 27.3296 40.6464 27.3196 41.8164C27.3096 43.1164 25.9596 43.9364 25.1996 44.9964C24.5796 45.8664 24.3396 46.9864 24.5496 48.0364C24.6096 48.3464 24.7696 48.6964 25.0796 48.7264C25.1996 48.7364 25.3096 48.6964 25.4296 48.6564C27.8896 47.7064 29.4796 45.3064 31.7096 43.9064C33.4196 42.8364 35.4496 42.3964 37.2796 41.5264C41.3396 39.6064 44.1696 35.5364 44.9996 31.1264C44.9996 31.0764 45.0196 31.0264 45.0296 30.9664C45.0996 30.5964 45.1696 30.2364 45.2096 29.8664C45.6896 24.9764 43.7996 19.9864 40.5096 16.3364L40.4996 16.3164Z" stroke="#171714" stroke-width="1.3" stroke-linecap="round" stroke-linejoin="round"/>
<path d="M13.0898 21.2466C13.0898 21.2466 13.0898 21.2566 13.0998 21.2666C13.2298 21.4466 13.3098 21.5566 13.3098 21.5566V21.5266C14.6298 23.2666 16.6898 24.4066 19.0298 24.4066C22.9898 24.4066 26.1898 21.1966 26.1898 17.2466" stroke="#171714" stroke-width="1.3" stroke-linecap="round" stroke-linejoin="round"/>
<path d="M19.08 21.4565C21.61 21.7365 24.03 19.5965 24.18 16.9865C24.18 16.8765 24.28 16.7965 24.39 16.8065C24.49 16.8065 24.56 16.8865 24.57 16.9865C24.68 18.4265 24.19 19.9465 23.19 21.0865C22.2 22.2365 20.69 23.0065 19.09 23.1065C18.63 23.1465 18.21 22.7965 18.19 22.3365C18.15 21.8365 18.59 21.4065 19.09 21.4565H19.08Z" fill="#171714"/>
<path d="M18.2388 12.4666C19.4088 11.9566 21.0388 12.3366 21.3888 13.6566C21.4588 14.0366 21.7888 14.9366 21.2688 15.0066C21.1288 15.0066 20.9988 14.9166 20.9688 14.7766C20.7088 13.6366 19.9488 13.0766 18.9188 13.7966C17.9388 14.4866 17.0988 12.8666 18.2288 12.4666H18.2388Z" fill="#171714"/>
<path d="M10.1179 15.6766C10.1179 15.6766 9.59788 13.5666 11.6379 14.6466C13.1479 15.4466 14.1879 17.3666 14.1879 17.3666" stroke="#171714" stroke-width="1.3" stroke-linecap="round" stroke-linejoin="round"/>
<path d="M16.3989 17.3768C16.0389 17.5268 15.1889 17.8268 14.9589 18.0768C14.8689 18.2268 14.9089 18.1068 14.8989 18.2468C14.8889 18.3868 15.0889 18.7268 15.1889 18.9868C15.3889 19.4268 14.8389 19.8568 14.4589 19.5868C13.5889 19.1268 13.1389 17.7468 14.1089 17.0668C14.5689 16.6268 16.7289 16.1168 16.6789 17.0368C16.6589 17.1968 16.5389 17.3168 16.3989 17.3668V17.3768Z" fill="#171714"/>
<path d="M24.0969 41.9766C24.0269 42.0566 23.8969 42.0766 23.7869 42.0666C23.2169 42.0466 22.7169 41.7066 22.2969 41.3266C21.5069 40.6066 20.9069 39.6366 20.6969 38.5866C20.4969 37.5966 20.6869 36.3166 21.9669 36.3066C22.5169 36.3066 23.0469 36.6266 23.3369 37.0966C23.8369 37.9166 23.6069 38.9566 23.7069 39.9066C23.7669 40.4866 23.9569 41.0466 24.1169 41.6066C24.1469 41.7166 24.1769 41.8466 24.0969 41.9666V41.9766Z" fill="#EFEEDF"/>
<mask id="mask1_4115_3138" style="mask-type:luminance" maskUnits="userSpaceOnUse" x="20" y="36" width="5" height="7">
<path d="M24.0969 41.9766C24.0269 42.0566 23.8969 42.0766 23.7869 42.0666C23.2169 42.0466 22.7169 41.7066 22.2969 41.3266C21.5069 40.6066 20.9069 39.6366 20.6969 38.5866C20.4969 37.5966 20.6869 36.3166 21.9669 36.3066C22.5169 36.3066 23.0469 36.6266 23.3369 37.0966C23.8369 37.9166 23.6069 38.9566 23.7069 39.9066C23.7669 40.4866 23.9569 41.0466 24.1169 41.6066C24.1469 41.7166 24.1769 41.8466 24.0969 41.9666V41.9766Z" fill="white"/>
</mask>
<g mask="url(#mask1_4115_3138)">
<path d="M23.8666 37.6568C23.8666 37.6568 21.1866 37.0768 21.5866 38.8168C21.9866 40.5568 22.8066 42.1268 22.8066 42.1268L21.1366 42.8968L18.9766 37.6668L19.9466 35.4468L22.6266 35.2368L24.3266 35.8868L23.8666 37.6668V37.6568Z" fill="white"/>
</g>
<path d="M24.0969 41.9766C24.0269 42.0566 23.8969 42.0766 23.7869 42.0666C23.2169 42.0466 22.7169 41.7066 22.2969 41.3266C21.5069 40.6066 20.9069 39.6366 20.6969 38.5866C20.4969 37.5966 20.6869 36.3166 21.9669 36.3066C22.5169 36.3066 23.0469 36.6266 23.3369 37.0966C23.8369 37.9166 23.6069 38.9566 23.7069 39.9066C23.7669 40.4866 23.9569 41.0466 24.1169 41.6066C24.1469 41.7166 24.1769 41.8466 24.0969 41.9666V41.9766Z" stroke="#171714" stroke-width="1.3" stroke-linecap="round" stroke-linejoin="round"/>
<path d="M22.0894 42.6668C22.0894 42.6668 22.1294 42.7268 22.1394 42.7668C22.1794 42.9368 22.0494 43.0868 21.9094 43.1968C21.4694 43.5668 20.9294 43.8368 20.3594 43.8968C19.7894 43.9568 19.1794 43.7868 18.7794 43.3768C18.1794 42.7668 18.1794 41.4768 19.0594 41.1168C19.3494 40.9968 19.6994 41.0268 19.9494 41.2168C20.2594 41.4568 20.3594 41.8768 20.6194 42.1668C20.8194 42.3968 21.1294 42.5368 21.4294 42.5368C21.5594 42.5368 21.6994 42.5168 21.8294 42.5368C21.9194 42.5468 22.0194 42.5968 22.0794 42.6668H22.0894Z" fill="#EFEEDF" stroke="#171714" stroke-width="1.3" stroke-linecap="round" stroke-linejoin="round"/>
<path d="M36.8076 12.2664C37.7476 11.9464 39.2376 11.3564 40.1776 10.9964C40.4076 10.8964 40.5776 11.2564 40.3476 11.3664C39.4776 11.8164 38.0876 12.5564 37.2176 12.9764C37.1276 13.0164 37.1176 13.0464 36.8876 13.0964C36.2776 13.1864 36.2076 12.3564 36.7976 12.2664H36.8076Z" fill="#171714"/>
<path d="M38.4889 13.9664C39.4489 13.7364 40.9989 13.3064 41.9689 13.0364C42.2289 12.9564 42.3689 13.3564 42.1089 13.4564C41.1989 13.8164 39.7389 14.3964 38.8289 14.7164C38.7289 14.7464 38.7189 14.7664 38.4889 14.7964C37.8789 14.8164 37.8889 13.9964 38.4889 13.9564V13.9664Z" fill="#171714"/>
<path d="M40.7991 16.6464C40.2691 16.7964 40.0391 16.0264 40.5391 15.8564C40.6191 15.8364 40.7392 15.8064 40.8192 15.7864C41.3492 15.6564 42.3191 15.4264 42.8491 15.2964C43.1091 15.2264 43.2291 15.6164 42.9891 15.7164C42.3691 15.9864 41.4292 16.3764 40.8192 16.6464C40.8492 16.6264 40.8791 16.6464 40.9991 16.5164C41.0491 16.4764 41.1491 16.2664 41.0391 16.0664C40.9391 15.8964 40.8391 15.8764 40.7991 15.8564C40.5891 15.8164 40.6691 15.8364 40.5591 15.8564C41.0891 15.7064 41.3191 16.4964 40.7991 16.6564V16.6464Z" fill="#171714"/>
<path d="M42.1996 17.4668L43.6196 17.4268C43.7296 17.4268 43.8296 17.5068 43.8396 17.6168C43.8396 17.7068 43.7796 17.7868 43.6996 17.8068L42.1996 18.2968C41.4696 18.4568 41.4496 17.3668 42.1996 17.4568V17.4668Z" fill="#171714"/>
<path d="M28.7578 40.5967C28.7578 40.5967 30.4678 41.3167 31.6078 40.8967Z" fill="#EFEEDF"/>
<path d="M28.9568 40.1368C29.7168 40.5268 30.6868 40.8868 31.5568 40.7068C31.6668 40.6868 31.7668 40.7468 31.7868 40.8568C31.8068 40.9468 31.7568 41.0368 31.6768 41.0768C31.1768 41.3068 30.6368 41.3468 30.1168 41.3168C29.5568 41.2068 28.0668 41.3168 28.2268 40.4268C28.3068 40.1168 28.6768 39.9668 28.9568 40.1268V40.1368Z" fill="#171714"/>
<path d="M27.3984 45.3967C27.3984 45.3967 29.4784 43.3267 31.3284 42.6567Z" fill="#EFEEDF"/>
<path d="M27.0485 45.0465C28.3385 43.9965 29.6785 43.0165 31.2785 42.5165C31.3685 42.4865 31.4585 42.5365 31.4785 42.6265C31.4985 42.7065 31.4585 42.7865 31.3885 42.8265C29.9785 43.4965 28.7985 44.6365 27.7485 45.7665C27.2785 46.2965 26.5085 45.5265 27.0385 45.0565L27.0485 45.0465Z" fill="#171714"/>
<path d="M28.5898 42.4866C28.6498 42.4066 31.0398 41.8066 31.3298 41.7666Z" fill="#EFEEDF"/>
<path d="M28.3386 42.2865C28.4686 42.1465 28.6786 42.1365 28.8486 42.0865C29.6586 41.9365 30.5086 41.7965 31.3286 41.7065C31.3886 41.7065 31.4086 41.7965 31.3486 41.8165C30.5886 42.0465 29.7586 42.3565 29.0086 42.6465C28.9586 42.6665 28.8286 42.7265 28.7786 42.7465C28.7086 42.7865 28.8286 42.7265 28.8386 42.6865C28.5886 43.0265 28.0586 42.6165 28.3286 42.2865H28.3386Z" fill="#171714"/>
<path d="M29.2573 18.0765C37.1373 16.7865 42.6473 21.7265 43.5473 29.4065L43.7773 32.2965C43.7773 32.3665 43.7273 32.4265 43.6573 32.4365C43.5873 32.4365 43.5273 32.3865 43.5173 32.3165L43.1973 29.4765C42.0973 22.2065 36.8773 17.6065 29.4273 19.0765C28.7873 19.2065 28.5973 18.2065 29.2473 18.0965L29.2573 18.0765Z" fill="#171714"/>
<path d="M30.19 21.6766C30.19 21.6766 30.13 21.6966 30.11 21.7066C29.43 21.9866 29.25 22.8366 28.84 23.4466C28.37 24.1566 27.57 24.5466 26.79 24.8266C26.69 24.8566 26.24 24.9466 26.2 25.0266C26.12 25.2066 26.62 25.1166 26.71 25.1066C27.22 25.0666 27.73 24.9766 28.22 24.8266C28.7 24.6866 29.24 24.4966 29.68 24.7266C29.87 24.8266 30.01 24.9766 30.17 25.1266C30.89 25.7866 31.84 26.1266 32.79 26.3066C34.04 26.5466 35.34 26.5566 36.57 26.2266C37.8 25.8966 38.95 25.2466 39.79 24.2866C40.07 23.9766 40.32 23.6066 40.33 23.1866C40.35 22.5866 39.87 22.0566 39.31 21.8366C38.75 21.6166 38.13 21.6366 37.53 21.6566C35.42 21.7366 33.3 21.8466 31.2 21.6466C30.86 21.6166 30.51 21.5766 30.19 21.6766Z" fill="#EFEEDF"/>
<path d="M30.4093 22.3266C30.1793 22.3866 29.9693 22.8866 29.6293 23.5966C29.0493 24.7566 27.5793 25.4666 26.6193 25.5966C27.0793 25.3166 26.9193 24.5466 26.4193 24.4466C26.5993 24.4266 27.2793 24.3966 27.6293 24.3066C28.3793 24.1766 29.1793 23.7466 30.0293 24.2566C31.6493 25.9666 34.0493 26.3766 36.3093 25.9866C37.5793 25.7866 40.8693 24.1166 39.8793 22.5666C39.5293 22.0966 38.9093 21.9366 38.2793 21.9566C36.2993 22.0566 34.2093 22.3566 32.1793 22.3066C31.5293 22.3266 30.6493 22.1866 30.4093 22.3166V22.3266ZM29.9793 21.0366C30.5093 20.8866 30.9293 20.9766 31.2593 21.0166C33.6093 21.3366 35.8993 21.2966 38.2993 21.3466C39.9593 21.3466 41.4093 22.9666 39.9993 24.4166C38.1293 26.5966 34.9893 27.2266 32.2593 26.6466C31.3293 26.5266 30.0993 25.8566 29.4393 25.2566C29.0293 25.1266 28.4393 25.4766 27.9193 25.5866C27.4893 25.7066 27.0293 25.7666 26.5893 25.8266C26.3793 25.8466 26.0593 25.8866 25.7693 25.6566C25.2893 25.2666 25.4993 24.5066 26.0193 24.3266C26.8693 24.0566 27.8993 23.6466 28.3293 22.8666C28.7093 22.2166 29.0693 21.3166 29.9893 21.0366H29.9793Z" fill="#171714"/>
<path d="M31.5909 22.6466C33.5509 23.2966 35.7409 23.2866 37.7909 23.0466C37.9109 23.0266 38.0209 23.1166 38.0309 23.2366C38.0309 23.9766 30.4309 24.1466 31.0209 22.9166C31.0909 22.6766 31.3609 22.5566 31.5909 22.6466Z" fill="#171714"/>
<path d="M31.8897 24.0066C33.1497 24.3166 34.5197 24.7466 35.8097 24.6366C35.8697 24.6366 35.9297 24.6766 35.9397 24.7366C35.9397 24.7966 35.9097 24.8466 35.8597 24.8666C34.4697 25.1966 33.1097 24.9566 31.7197 24.8366C31.1297 24.7566 31.3197 23.8566 31.8897 24.0166V24.0066Z" fill="#171714"/>
</svg>
