<svg width="24" height="24" viewBox="0 0 24 24" fill="none" xmlns="http://www.w3.org/2000/svg">
<path d="M17.4806 15.3111C18.8206 13.7231 19.6406 11.6757 19.6706 9.43859C19.7306 4.29516 15.6006 0.0705555 10.4506 0.000644736C5.31064 -0.0592787 1.07065 4.06545 1.00065 9.20889C0.940646 14.3423 5.07065 18.5769 10.2206 18.6369C11.7006 18.6568 13.1007 18.3173 14.3507 17.718L19.1906 24L23.5306 21.5032L17.4806 15.3111ZM11.8807 14.5221C11.3907 14.6719 10.8706 14.7518 10.3306 14.7518C7.33065 14.7518 4.89065 12.3249 4.89065 9.31875C4.89065 6.31258 7.32065 3.88568 10.3306 3.88568C13.3406 3.88568 15.7607 6.31258 15.7607 9.31875C15.7607 10.5072 15.3706 11.6058 14.7206 12.4947C14.0306 13.4535 13.0407 14.1725 11.8807 14.5221Z" fill="#EFEEDF"/>
</svg>
