<svg width="54" height="54" viewBox="0 0 54 54" fill="none" xmlns="http://www.w3.org/2000/svg">
<path d="M16.5195 37.2905V42.8916C16.5195 44.0609 21.4327 45.7413 27.4957 45.7413C33.5586 45.7413 38.4718 44.0708 38.4718 42.8916V37.2905H16.5195Z" fill="#EFEEDF"/>
<mask id="mask0_4115_2928" style="mask-type:luminance" maskUnits="userSpaceOnUse" x="16" y="37" width="23" height="9">
<path d="M16.5117 37.292V42.8931C16.5117 44.0624 21.4249 45.7427 27.4878 45.7427C33.5507 45.7427 38.464 44.0722 38.464 42.8931V37.292H16.5117Z" fill="white"/>
</mask>
<g mask="url(#mask0_4115_2928)">
<path d="M19.2106 34.7762H13.5898V47.7274H20.4094V34.6484L19.2106 34.7762Z" fill="white"/>
</g>
<path d="M16.5195 37.2905V42.8916C16.5195 44.0609 21.4327 45.7413 27.4957 45.7413C33.5586 45.7413 38.4718 44.0708 38.4718 42.8916V37.2905H16.5195Z" stroke="#171714" stroke-width="1.3" stroke-miterlimit="10"/>
<path d="M47.2982 25.8018C46.178 26.3128 44.5567 26.8139 42.5619 27.1971C38.5527 27.9734 33.1187 28.3272 27.4783 28.3272C21.838 28.3272 16.2074 27.9341 12.1982 27.1578C10.2035 26.7746 8.77864 26.3128 7.65842 25.8018C6.53821 25.1827 6.72491 24.8191 6.67578 24.6914C7.59947 34.7635 16.5612 41.9564 27.4783 41.9564C38.3955 41.9564 47.3572 34.7635 48.2809 24.6914C48.2809 24.9764 47.7404 25.5954 47.2884 25.8018H47.2982Z" fill="#EFEEDF"/>
<mask id="mask1_4115_2928" style="mask-type:luminance" maskUnits="userSpaceOnUse" x="6" y="24" width="43" height="18">
<path d="M47.3021 25.8018C46.1819 26.3128 44.5606 26.8139 42.5658 27.1971C38.5566 27.9734 33.1226 28.3272 27.4822 28.3272C21.8419 28.3272 16.2113 27.9341 12.2021 27.1578C10.2074 26.7746 8.78254 26.3128 7.66233 25.8018C6.54212 25.1827 6.72882 24.8191 6.67969 24.6914C7.60337 34.7635 16.5651 41.9564 27.4822 41.9564C38.3994 41.9564 47.3611 34.7635 48.2848 24.6914C48.2848 24.9764 47.7443 25.5954 47.2923 25.8018H47.3021Z" fill="white"/>
</mask>
<g mask="url(#mask1_4115_2928)">
<path d="M10.6912 22.9623C10.6912 22.9623 11.4577 35.3337 17.4911 39.736L6.05313 37.9574L4.72656 20.1421L10.701 22.9524L10.6912 22.9623Z" fill="white"/>
<path d="M38.8979 25.9687C38.8979 25.9687 40.5979 35.8934 32.1472 42.7916C26.1334 47.7048 51.8 31.8056 51.8787 25.9687C51.8983 24.2 38.8979 25.9687 38.8979 25.9687Z" fill="#CECECE"/>
<path d="M3.625 30.0961C3.625 30.0961 8.86249 34.3706 17.5982 36.5029C26.9431 38.7826 40.1597 38.6647 51.3716 30.0961V27.5117C41.9284 35.2943 27.9258 35.9133 18.4727 34.0365C9.01971 32.1596 3.63483 27.5117 3.63483 27.5117V30.0961H3.625Z" fill="#DD3E3D" stroke="#171714" stroke-width="1.3" stroke-miterlimit="10"/>
</g>
<path d="M47.2982 25.8018C46.178 26.3128 44.5567 26.8139 42.5619 27.1971C38.5527 27.9734 33.1187 28.3272 27.4783 28.3272C21.838 28.3272 16.2074 27.9341 12.1982 27.1578C10.2035 26.7746 8.77864 26.3128 7.65842 25.8018C6.53821 25.1827 6.72491 24.8191 6.67578 24.6914C7.59947 34.7635 16.5612 41.9564 27.4783 41.9564C38.3955 41.9564 47.3572 34.7635 48.2809 24.6914C48.2809 24.9764 47.7404 25.5954 47.2884 25.8018H47.2982Z" stroke="#171714" stroke-width="1.3" stroke-linecap="square" stroke-linejoin="round"/>
<path d="M27.4861 32.161C38.9751 32.161 48.2887 28.6503 48.2887 24.3195C48.2887 19.9888 38.9751 16.478 27.4861 16.478C15.9972 16.478 6.68359 19.9888 6.68359 24.3195C6.68359 28.6503 15.9972 32.161 27.4861 32.161Z" fill="#EFEEDF"/>
<mask id="mask2_4115_2928" style="mask-type:luminance" maskUnits="userSpaceOnUse" x="6" y="16" width="43" height="17">
<path d="M27.4861 32.1615C38.9751 32.1615 48.2887 28.6507 48.2887 24.32C48.2887 19.9893 38.9751 16.4785 27.4861 16.4785C15.9972 16.4785 6.68359 19.9893 6.68359 24.32C6.68359 28.6507 15.9972 32.1615 27.4861 32.1615Z" fill="white"/>
</mask>
<g mask="url(#mask2_4115_2928)">
<path d="M39.2812 23.2771C39.2812 21.0956 36.8148 19.8575 36.1073 19.5135C34.5645 18.7864 33.1692 18.9141 32.8154 18.9534C32.3044 19.0124 31.312 19.1303 30.4374 19.7985C29.8576 20.2407 29.3663 20.8892 29.2386 21.0563C29.0814 21.2725 28.9536 21.4592 28.875 21.5967L32.9235 22.3632L38.6032 23.1297L39.2812 23.2574V23.2771Z" fill="#EFEEDF" stroke="#171714" stroke-width="1.3" stroke-miterlimit="10"/>
<path d="M35.0472 22.6194C34.664 22.1969 33.1114 21.3714 32.4039 21.116C30.3109 20.3495 28.9254 20.2611 28.0017 20.153C26.6555 19.9957 25.5058 20.0449 23.737 20.2414C22.4596 20.379 21.2116 20.5264 19.8064 21.283C19.1481 21.6368 18.0868 22.2263 17.2516 23.4448C16.2001 24.9777 16.1313 26.5696 16.151 27.2378L19.659 24.1425L23.7763 23.4252L28.1294 24.1818L32.4825 23.4153L35.0374 22.6096L35.0472 22.6194Z" fill="#EFEEDF" stroke="#171714" stroke-width="1.3" stroke-miterlimit="10"/>
<path d="M37.4519 27.7975C37.1571 27.7189 36.9311 27.5027 36.7051 27.2964C35.0052 25.7733 32.5191 25.2034 30.3179 25.8126C30.0526 25.8814 29.7873 25.9796 29.522 25.9502C29.2567 25.9207 29.011 25.7733 28.785 25.6357C27.7336 24.997 26.4758 24.4172 25.4342 23.7785C25.3556 23.7294 25.277 23.6803 25.2377 23.6017C25.1198 23.3462 25.4833 23.1595 25.7585 23.1202C29.2174 22.619 33.3445 22.4127 36.5774 23.8964C37.9433 24.5253 39.1912 25.4097 40.223 26.5103C40.2623 26.5594 40.3114 26.6085 40.3213 26.6773C40.3409 26.8051 40.2132 26.8935 40.0952 26.9525C39.5155 27.2571 38.9062 27.5027 38.2872 27.7091C38.0219 27.7975 37.7271 27.8761 37.4421 27.8074L37.4519 27.7975Z" fill="#FAD22A" stroke="#171714" stroke-width="1.3" stroke-linecap="round" stroke-linejoin="round"/>
<path d="M35.9515 33.0245C36.0399 33.1424 36.2069 33.1817 36.3543 33.2014C37.0815 33.2996 37.8774 33.2112 38.4375 32.7297C38.978 32.2678 39.1942 31.5014 39.1156 30.7841C39.037 30.0667 38.7029 29.4182 38.2901 28.8286C37.2584 27.3743 35.696 26.3327 33.9862 25.861C33.1116 25.6154 32.1978 25.5171 31.2937 25.5859C30.9989 25.6055 30.2226 25.5859 30.0163 25.8414C29.7313 26.1951 30.2226 26.824 30.4388 27.0893C30.9695 27.728 31.618 28.2881 32.3255 28.7303C33.1116 29.2118 33.9763 29.5656 34.7035 30.1355C35.4306 30.7054 36.0202 31.58 35.9023 32.4939C35.8827 32.6707 35.8335 32.8771 35.9416 33.0245H35.9515Z" fill="#FAD22A" stroke="#171714" stroke-width="1.3" stroke-miterlimit="10"/>
<path d="M35.9175 32.9567C36.0157 32.8977 36.0845 32.7896 36.1435 32.6815C36.4579 32.0035 36.1435 31.2076 35.7504 30.5787C34.3845 28.3972 32.1048 26.992 29.9233 25.6261C28.0661 24.4666 26.1598 23.2678 24.0275 22.7863C20.1755 21.9118 15.2623 24.5256 16.4611 29.0654C16.4808 29.1342 16.5103 29.2128 16.579 29.2423C16.638 29.2619 16.7068 29.2423 16.7657 29.203C17.886 28.5544 18.338 27.1394 19.3304 26.314C20.1067 25.6753 21.168 25.4394 22.1801 25.5181C23.1922 25.5967 24.1454 25.9602 25.0593 26.3926C28.6656 28.1024 31.643 30.9029 35.1313 32.8387C35.377 32.9763 35.6816 33.1041 35.9175 32.9567Z" fill="#FAD22A"/>
<mask id="mask3_4115_2928" style="mask-type:luminance" maskUnits="userSpaceOnUse" x="16" y="22" width="21" height="12">
<path d="M35.9096 32.9557C36.0079 32.8967 36.0767 32.7886 36.1357 32.6805C36.4501 32.0025 36.1357 31.2066 35.7426 30.5777C34.3767 28.3962 32.097 26.991 29.9155 25.6252C28.0583 24.4657 26.152 23.2668 24.0197 22.7853C20.1677 21.9108 15.2545 24.5246 16.4533 29.0644C16.473 29.1332 16.5024 29.2118 16.5712 29.2413C16.6302 29.2609 16.699 29.2413 16.7579 29.202C17.8781 28.5534 18.3302 27.1384 19.3226 26.313C20.0989 25.6743 21.1602 25.4385 22.1723 25.5171C23.1844 25.5957 24.1376 25.9593 25.0514 26.3916C28.6577 28.1014 31.6351 30.902 35.1235 32.8378C35.3692 32.9753 35.6738 33.1031 35.9096 32.9557Z" fill="white"/>
</mask>
<g mask="url(#mask3_4115_2928)">
<path d="M25.2452 23.6027C25.2452 23.6027 22.0909 23.5831 22.1695 25.5287C22.2285 26.9143 17.1089 27.8085 17.1089 27.8085L15.6055 24.0646L22.1007 21.9912L25.2354 23.6126" fill="#EFEEDF"/>
<path d="M33.2933 27.9268C33.2933 27.9268 34.4823 31.4741 30.4338 28.9487C27.309 27.0031 35.9071 32.9579 35.9071 32.9579L36.6736 31.6903L35.18 29.4695L33.2835 27.9366" fill="#F6A42B"/>
</g>
<path d="M35.9175 32.9567C36.0157 32.8977 36.0845 32.7896 36.1435 32.6815C36.4579 32.0035 36.1435 31.2076 35.7504 30.5787C34.3845 28.3972 32.1048 26.992 29.9233 25.6261C28.0661 24.4666 26.1598 23.2678 24.0275 22.7863C20.1755 21.9118 15.2623 24.5256 16.4611 29.0654C16.4808 29.1342 16.5103 29.2128 16.579 29.2423C16.638 29.2619 16.7068 29.2423 16.7657 29.203C17.886 28.5544 18.338 27.1394 19.3304 26.314C20.1067 25.6753 21.168 25.4394 22.1801 25.5181C23.1922 25.5967 24.1454 25.9602 25.0593 26.3926C28.6656 28.1024 31.643 30.9029 35.1313 32.8387C35.377 32.9763 35.6816 33.1041 35.9175 32.9567Z" stroke="#171714" stroke-width="1.3" stroke-linecap="round" stroke-linejoin="round"/>
<path d="M36.9071 38.5274C36.9071 38.5274 36.8481 38.5765 36.8285 38.5962C35.8655 39.3528 34.6667 39.7655 33.458 39.9326C30.5887 40.3158 27.572 39.2349 25.5674 37.1419C24.5946 36.1298 23.8674 34.9211 22.9929 33.8304C22.2166 32.8477 21.3126 31.9535 20.2415 31.3148C20.0744 31.2165 19.3571 30.8628 19.8877 30.7252C20.271 30.627 20.9097 30.8628 21.2831 30.9414C22.1183 31.1281 22.9831 31.3148 23.6906 31.816C24.3882 32.3073 24.8599 33.0443 25.3905 33.7125C26.8154 35.55 28.82 37.0534 31.1292 37.3875C31.7679 37.4858 32.4263 37.4858 33.0355 37.2991C33.6447 37.1124 34.2147 36.7095 34.5193 36.1494C34.6176 35.9725 34.6863 35.776 34.8436 35.6581C35.1777 35.4124 35.6395 35.6384 36.0227 35.7957C36.632 36.0512 37.3296 36.1003 37.9684 35.9332C38.1256 35.8939 38.3123 35.8448 38.44 35.9529C38.6071 36.0806 38.5481 36.3459 38.4597 36.5326C38.1059 37.3089 37.5753 37.9968 36.9169 38.5372L36.9071 38.5274Z" fill="#FAD22A"/>
<mask id="mask4_4115_2928" style="mask-type:luminance" maskUnits="userSpaceOnUse" x="19" y="30" width="20" height="11">
<path d="M36.9032 38.5269C36.9032 38.5269 36.8442 38.5761 36.8246 38.5957C35.8616 39.3523 34.6628 39.7651 33.4541 39.9321C30.5848 40.3153 27.5681 39.2344 25.5635 37.1414C24.5907 36.1293 23.8635 34.9206 22.989 33.8299C22.2127 32.8472 21.3087 31.953 20.2376 31.3143C20.0705 31.2161 19.3532 30.8623 19.8838 30.7247C20.2671 30.6265 20.9058 30.8623 21.2792 30.9409C22.1144 31.1276 22.9791 31.3143 23.6866 31.8155C24.3843 32.3068 24.856 33.0438 25.3866 33.712C26.8115 35.5495 28.816 37.053 31.1253 37.3871C31.764 37.4853 32.4223 37.4853 33.0316 37.2986C33.6408 37.1119 34.2108 36.709 34.5154 36.1489C34.6136 35.9721 34.6824 35.7755 34.8397 35.6576C35.1738 35.4119 35.6356 35.638 36.0188 35.7952C36.6281 36.0507 37.3257 36.0998 37.9645 35.9327C38.1217 35.8934 38.3084 35.8443 38.4361 35.9524C38.6032 36.0801 38.5442 36.3455 38.4558 36.5322C38.102 37.3084 37.5714 37.9963 36.913 38.5368L36.9032 38.5269Z" fill="white"/>
</mask>
<g mask="url(#mask4_4115_2928)">
<path d="M30.1172 37.1515C30.1172 37.1515 28.8397 39.3329 32.7408 39.274C36.0032 39.2248 31.7778 39.9815 31.7778 39.9815L26.727 38.3699L23.6317 34.3313L20.9688 31.2163L23.9658 32.4937L25.9213 34.4885C25.9213 34.4885 27.3363 35.8249 27.3658 35.8446C27.3952 35.8642 30.1172 37.1515 30.1172 37.1515Z" fill="#F6A42B"/>
</g>
<path d="M36.9071 38.5274C36.9071 38.5274 36.8481 38.5765 36.8285 38.5962C35.8655 39.3528 34.6667 39.7655 33.458 39.9326C30.5887 40.3158 27.572 39.2349 25.5674 37.1419C24.5946 36.1298 23.8674 34.9211 22.9929 33.8304C22.2166 32.8477 21.3126 31.9535 20.2415 31.3148C20.0744 31.2165 19.3571 30.8628 19.8877 30.7252C20.271 30.627 20.9097 30.8628 21.2831 30.9414C22.1183 31.1281 22.9831 31.3148 23.6906 31.816C24.3882 32.3073 24.8599 33.0443 25.3905 33.7125C26.8154 35.55 28.82 37.0534 31.1292 37.3875C31.7679 37.4858 32.4263 37.4858 33.0355 37.2991C33.6447 37.1124 34.2147 36.7095 34.5193 36.1494C34.6176 35.9725 34.6863 35.776 34.8436 35.6581C35.1777 35.4124 35.6395 35.6384 36.0227 35.7957C36.632 36.0512 37.3296 36.1003 37.9684 35.9332C38.1256 35.8939 38.3123 35.8448 38.44 35.9529C38.6071 36.0806 38.5481 36.3459 38.4597 36.5326C38.1059 37.3089 37.5753 37.9968 36.9169 38.5372L36.9071 38.5274Z" stroke="#171714" stroke-width="1.3" stroke-linecap="round" stroke-linejoin="round"/>
<path d="M42.0871 28.9175C41.9594 28.7112 41.6941 28.2886 41.6449 28.0528C41.5467 27.6303 39.0114 25.0557 38.7854 25.0852C37.9404 25.1736 37.4687 27.8563 37.5277 27.925C37.6554 28.0626 38.3826 29.0158 38.4907 29.1239C39.0016 29.6742 39.1294 30.5978 39.0999 31.3446C39.0704 32.0915 38.6282 32.8383 37.9502 33.1625C36.8988 33.6735 35.6508 33.1232 34.6387 32.5336C32.4376 31.2759 30.3347 29.851 28.222 28.4459C26.5908 27.3551 24.9007 26.2546 22.9944 25.8025C21.8938 25.5372 20.7048 25.5274 19.6141 25.8517C19.0638 26.0089 16.8332 26.9719 17.1378 27.7875C17.2361 28.0724 17.6193 28.0921 17.9239 28.0823C20.2528 27.984 22.5522 28.6424 24.6649 29.6348C26.7775 30.6273 28.7134 31.9342 30.6492 33.2215C32.1133 34.1943 33.6069 35.1671 35.2872 35.6781C36.9676 36.1891 38.8837 36.1989 40.3872 35.2949C41.3993 34.6856 42.1756 33.6932 42.5097 32.5631C42.8438 31.4331 42.7357 30.1753 42.2149 29.114C42.1854 29.0453 42.1461 28.9765 42.1068 28.9175H42.0871Z" fill="#FAD22A"/>
<mask id="mask5_4115_2928" style="mask-type:luminance" maskUnits="userSpaceOnUse" x="17" y="25" width="26" height="12">
<path d="M42.0832 28.918C41.9555 28.7117 41.6902 28.2891 41.641 28.0533C41.5428 27.6307 39.0075 25.0562 38.7815 25.0857C37.9365 25.1741 37.4648 27.8568 37.5238 27.9255C37.6515 28.0631 38.3787 29.0163 38.4867 29.1244C38.9977 29.6746 39.1255 30.5983 39.096 31.3451C39.0665 32.0919 38.6243 32.8388 37.9463 33.163C36.8949 33.674 35.6469 33.1237 34.6348 32.5341C32.4337 31.2764 30.3308 29.8515 28.2181 28.4463C26.5869 27.3556 24.8968 26.255 22.9905 25.803C21.8899 25.5377 20.7009 25.5279 19.6102 25.8522C19.0599 26.0094 16.8293 26.9724 17.1339 27.788C17.2322 28.0729 17.6154 28.0926 17.92 28.0828C20.2489 27.9845 22.5483 28.6429 24.661 29.6353C26.7736 30.6278 28.7094 31.9347 30.6453 33.222C32.1094 34.1948 33.603 35.1676 35.2833 35.6786C36.9636 36.1896 38.8798 36.1994 40.3832 35.2954C41.3954 34.6861 42.1717 33.6937 42.5058 32.5636C42.8398 31.4336 42.7318 30.1758 42.211 29.1145C42.1815 29.0457 42.1422 28.977 42.1029 28.918H42.0832Z" fill="white"/>
</mask>
<g mask="url(#mask5_4115_2928)">
<path d="M23.0583 26.0978C23.0583 26.0978 19.7075 26.6874 20.9259 27.955C21.5647 28.6232 17.1133 27.7978 17.1133 27.7978L19.5895 25.862L22.1641 25.5181" fill="#EFEEDF"/>
<path d="M35.9405 33.0542C35.9405 33.0542 38.2104 35.0293 35.2625 35.6876C32.3145 36.346 40.3624 35.3044 40.3624 35.3044L43.045 31.7669L42.1901 29.1236L40.8832 28.4062L38.8786 29.3791L38.5248 31.5114L37.6699 33.6437L35.9405 33.0542Z" fill="#F6A42B"/>
</g>
<path d="M42.0871 28.9175C41.9594 28.7112 41.6941 28.2886 41.6449 28.0528C41.5467 27.6303 39.0114 25.0557 38.7854 25.0852C37.9404 25.1736 37.4687 27.8563 37.5277 27.925C37.6554 28.0626 38.3826 29.0158 38.4907 29.1239C39.0016 29.6742 39.1294 30.5978 39.0999 31.3446C39.0704 32.0915 38.6282 32.8383 37.9502 33.1625C36.8988 33.6735 35.6508 33.1232 34.6387 32.5336C32.4376 31.2759 30.3347 29.851 28.222 28.4459C26.5908 27.3551 24.9007 26.2546 22.9944 25.8025C21.8938 25.5372 20.7048 25.5274 19.6141 25.8517C19.0638 26.0089 16.8332 26.9719 17.1378 27.7875C17.2361 28.0724 17.6193 28.0921 17.9239 28.0823C20.2528 27.984 22.5522 28.6424 24.6649 29.6348C26.7775 30.6273 28.7134 31.9342 30.6492 33.2215C32.1133 34.1943 33.6069 35.1671 35.2872 35.6781C36.9676 36.1891 38.8837 36.1989 40.3872 35.2949C41.3993 34.6856 42.1756 33.6932 42.5097 32.5631C42.8438 31.4331 42.7357 30.1753 42.2149 29.114C42.1854 29.0453 42.1461 28.9765 42.1068 28.9175H42.0871Z" stroke="#171714" stroke-width="1.3" stroke-linecap="round" stroke-linejoin="round"/>
<path d="M35.0181 35.6383C35.1753 35.8938 34.6348 36.6308 33.9666 37.0533C33.0135 37.6527 31.9522 37.5152 31.5002 37.4464C31.117 37.3874 30.6158 37.2695 29.6234 36.7585C27.9627 35.9036 26.8425 34.9505 26.6853 34.8129C25.3292 33.6927 22.8038 31.6095 19.6102 31.0395C17.7825 30.7153 16.5444 31.0395 16.2398 31.1083C14.6774 31.5309 13.5572 32.2973 13.1346 32.71C12.378 33.4372 12.0046 33.9973 11.7982 34.7638C11.6901 35.1765 11.6803 35.6088 11.4052 35.7268C11.0318 35.884 10.4913 35.3239 10.4225 35.2551C9.66588 34.4788 9.46936 33.3979 9.77398 32.3366C10.0786 31.295 10.8352 30.4205 11.3855 29.939C12.7809 28.7205 14.2843 28.3569 15.2669 28.1309C15.8271 28.0032 17.8415 27.5806 20.4651 28.0818C22.6564 28.5043 24.1697 29.3494 25.5847 30.1552C26.7442 30.8037 28.6899 31.9043 30.4291 33.3979C30.4291 33.3979 31.8343 34.6065 33.269 35.147C33.9765 35.4123 34.3007 35.4713 34.3007 35.4713C34.7724 35.5597 34.9591 35.5106 35.0279 35.6285L35.0181 35.6383Z" fill="#FAD22A"/>
<mask id="mask6_4115_2928" style="mask-type:luminance" maskUnits="userSpaceOnUse" x="9" y="27" width="27" height="11">
<path d="M35.022 35.6378C35.1792 35.8933 34.6387 36.6303 33.9705 37.0528C33.0174 37.6522 31.9561 37.5147 31.5041 37.4459C31.1209 37.3869 30.6197 37.269 29.6273 36.758C27.9666 35.9031 26.8464 34.95 26.6892 34.8124C25.3331 33.6922 22.8077 31.609 19.6141 31.0391C17.7864 30.7148 16.5483 31.0391 16.2437 31.1078C14.6813 31.5304 13.5611 32.2968 13.1385 32.7095C12.3819 33.4367 12.0085 33.9968 11.8021 34.7633C11.694 35.176 11.6842 35.6083 11.4091 35.7263C11.0357 35.8835 10.4952 35.3234 10.4264 35.2546C9.66979 34.4783 9.47326 33.3974 9.77788 32.3361C10.0825 31.2945 10.8391 30.42 11.3894 29.9385C12.7848 28.72 14.2882 28.3564 15.2709 28.1304C15.831 28.0027 17.8454 27.5802 20.469 28.0813C22.6603 28.5038 24.1736 29.3489 25.5886 30.1547C26.7481 30.8032 28.6938 31.9038 30.433 33.3974C30.433 33.3974 31.8382 34.6061 33.2729 35.1465C33.9804 35.4118 34.3047 35.4708 34.3047 35.4708C34.7763 35.5592 34.963 35.5101 35.0318 35.628L35.022 35.6378Z" fill="white"/>
</mask>
<g mask="url(#mask6_4115_2928)">
<path d="M20.4677 28.0911C20.4677 28.0911 16.0852 28.779 17.0383 31.2257C17.8736 33.3679 9.91415 35.7164 9.91415 35.7164L8.63672 32.6113L11.8303 28.4056L16.1539 27.2559L20.4579 28.1009" fill="#EFEEDF"/>
</g>
<path d="M35.0181 35.6383C35.1753 35.8938 34.6348 36.6308 33.9666 37.0533C33.0135 37.6527 31.9522 37.5152 31.5002 37.4464C31.117 37.3874 30.6158 37.2695 29.6234 36.7585C27.9627 35.9036 26.8425 34.9505 26.6853 34.8129C25.3292 33.6927 22.8038 31.6095 19.6102 31.0395C17.7825 30.7153 16.5444 31.0395 16.2398 31.1083C14.6774 31.5309 13.5572 32.2973 13.1346 32.71C12.378 33.4372 12.0046 33.9973 11.7982 34.7638C11.6901 35.1765 11.6803 35.6088 11.4052 35.7268C11.0318 35.884 10.4913 35.3239 10.4225 35.2551C9.66588 34.4788 9.46936 33.3979 9.77398 32.3366C10.0786 31.295 10.8352 30.4205 11.3855 29.939C12.7809 28.7205 14.2843 28.3569 15.2669 28.1309C15.8271 28.0032 17.8415 27.5806 20.4651 28.0818C22.6564 28.5043 24.1697 29.3494 25.5847 30.1552C26.7442 30.8037 28.6899 31.9043 30.4291 33.3979C30.4291 33.3979 31.8343 34.6065 33.269 35.147C33.9765 35.4123 34.3007 35.4713 34.3007 35.4713C34.7724 35.5597 34.9591 35.5106 35.0279 35.6285L35.0181 35.6383Z" stroke="#171714" stroke-width="1.3" stroke-linecap="round" stroke-linejoin="round"/>
<path d="M38.8524 36.0714C38.646 36.2778 38.4495 36.4841 38.253 36.7003C36.6021 38.5182 35.3935 40.9158 35.6785 43.3626C35.7374 43.8343 35.9143 44.3944 36.3761 44.5221C36.7004 44.6204 37.0542 44.4534 37.29 44.2077C37.5258 43.962 37.6536 43.6476 37.801 43.3331C38.8426 41.0436 40.346 38.9997 41.9379 37.0639C42.8616 35.9338 43.8344 34.8235 44.5517 33.5558C45.2691 32.2882 45.7407 30.8241 45.5737 29.3698C45.328 27.2375 43.7361 25.4589 41.8986 24.3387C40.8472 23.6999 39.6582 23.2381 38.42 23.1398C37.9287 23.1005 36.9952 23.0317 36.5727 23.3167C35.9929 23.7098 36.7201 23.867 37.1917 24.093C38.5871 24.7612 39.8547 25.8912 40.8472 27.0802C41.8396 28.2692 42.4194 29.8611 42.1344 31.3842C41.9281 32.4749 41.309 33.4478 40.572 34.283C40.0316 34.9021 39.4321 35.4622 38.8524 36.0518V36.0714Z" fill="#FAD22A" stroke="#171714" stroke-width="1.3" stroke-linecap="round" stroke-linejoin="round"/>
</g>
<path d="M27.4861 32.161C38.9751 32.161 48.2887 28.6503 48.2887 24.3195C48.2887 19.9888 38.9751 16.478 27.4861 16.478C15.9972 16.478 6.68359 19.9888 6.68359 24.3195C6.68359 28.6503 15.9972 32.161 27.4861 32.161Z" stroke="#171714" stroke-width="1.3" stroke-miterlimit="10"/>
<path d="M16.7411 26.5495C16.7411 26.5495 15.1918 23.3673 18.4697 19.8923L16.0455 20.1751C15.8452 18.7609 15.0337 16.6496 14.4434 15.7505C14.4434 15.7505 14.3591 17.5284 13.7373 19.0033C13.7373 19.0033 11.4501 17.2355 7.71897 17.1446C7.71897 17.1446 8.86782 18.3467 9.05754 19.7509C9.05754 19.7509 6.42257 20.064 5.69531 21.1348C5.69531 21.1348 14.4224 21.1348 16.7411 26.5596V26.5495Z" fill="#009133" stroke="#171714" stroke-linecap="round" stroke-linejoin="round"/>
<path d="M16.5033 26.7338C16.5033 26.7338 11.649 25.8199 9.89995 28.2962C9.89995 28.2962 9.64445 25.9772 11.708 25.3188C11.708 25.3188 10.6959 24.6015 9.73289 24.7587C8.7699 24.9159 14.2825 21.0345 16.5131 26.724L16.5033 26.7338Z" fill="#009133" stroke="#171714" stroke-linecap="round" stroke-linejoin="round"/>
<path d="M44.083 9.06104L36.1758 25.6668L37.3551 26.2425L46.5963 10.8172L44.083 9.06104Z" fill="#EFEDDE" stroke="#171714" stroke-width="1.3" stroke-linecap="round" stroke-linejoin="round"/>
<path d="M47.8274 13.0317L36.7109 25.8032L37.8516 27.0618L49.3064 15.7636L47.8274 13.0317Z" fill="#EFEDDE" stroke="#171714" stroke-width="1.3" stroke-linecap="round" stroke-linejoin="round"/>
</svg>
