<svg width="54" height="54" viewBox="0 0 54 54" fill="none" xmlns="http://www.w3.org/2000/svg">
<path d="M27.4091 21.4847C26.9975 21.3795 26.3658 21.2646 25.6 21.3125C23.944 21.4082 22.8145 22.1739 22.5273 22.375C22.1157 22.6621 21.3308 23.2269 20.8905 24.2128C20.6034 24.8541 20.4885 25.6486 20.4598 25.8496C20.4215 26.1081 20.4119 26.3282 20.4023 26.4814L24.2216 25.2466L27.2081 22.4898L27.4091 21.4847Z" fill="#EFEEDF" stroke="#171714" stroke-width="1.3" stroke-miterlimit="10"/>
<path d="M25.7751 23.6099C25.1529 23.8013 24.2627 24.0693 23.1906 24.4139C21.1231 25.0744 20.0893 25.3998 19.2565 25.7349C18.0313 26.223 16.8061 26.7208 15.3798 27.7163C14.3556 28.4342 13.3601 29.1425 12.5082 30.4443C12.1062 31.0569 11.4744 32.0524 11.3308 33.4882C11.149 35.2878 11.8382 36.6853 12.1636 37.2501L13.7143 32.9618L16.9018 30.4252L20.9795 29.0372L24.3393 26.3475L25.7751 23.6099Z" fill="#EFEEDF" stroke="#171714" stroke-width="1.3" stroke-miterlimit="10"/>
<path d="M30.6316 27.7544C30.3444 27.8309 30.0477 27.7448 29.7605 27.6778C27.5972 27.1705 25.2042 27.8405 23.6152 29.3912C23.4238 29.573 23.2419 29.7741 23.0026 29.8794C22.7633 29.9846 22.4857 29.9655 22.2177 29.9559C21.0212 29.8985 19.6811 29.9942 18.4846 29.9368C18.3985 29.9368 18.3123 29.9272 18.2357 29.8794C18.0156 29.7166 18.2357 29.3816 18.4559 29.2189C21.1839 27.1705 24.6107 25.0646 28.0662 24.8253C29.5308 24.72 31.0144 24.8923 32.4024 25.3518C32.4598 25.3709 32.5268 25.3901 32.5651 25.4475C32.6417 25.5432 32.5651 25.6868 32.4981 25.7825C32.144 26.309 31.7419 26.8067 31.3016 27.2757C31.1102 27.4768 30.8996 27.6778 30.6316 27.7544Z" fill="#FAD22A" stroke="#171714" stroke-width="1.3" stroke-linecap="round" stroke-linejoin="round"/>
<path d="M31.7886 32.9327C31.9226 32.9901 32.0757 32.9518 32.2097 32.8944C32.8798 32.6455 33.5211 32.1861 33.77 31.5256C34.0189 30.8747 33.8465 30.1185 33.4445 29.5442C33.0425 28.9699 32.449 28.5678 31.8268 28.2615C30.2666 27.4958 28.4383 27.3426 26.7536 27.7351C25.8922 27.9361 25.069 28.2807 24.3319 28.7593C24.0926 28.9124 23.413 29.2666 23.3651 29.5729C23.2885 30.0036 23.9969 30.3195 24.3128 30.4344C25.069 30.7311 25.873 30.913 26.6866 30.9513C27.5864 30.9991 28.4958 30.8939 29.3764 31.0374C30.257 31.181 31.1759 31.6596 31.5014 32.4924C31.5684 32.6551 31.6258 32.8561 31.7886 32.9327Z" fill="#171714" stroke="#171714" stroke-width="1.3" stroke-linecap="round" stroke-linejoin="round"/>
<path d="M31.7226 32.8941C31.7801 32.7888 31.7896 32.6739 31.7801 32.5591C31.7322 31.8316 31.1004 31.2956 30.4591 30.9414C28.2767 29.7162 25.6635 29.5726 23.1652 29.4386C21.0306 29.3141 18.8482 29.1801 16.7998 29.764C13.0954 30.8169 10.1185 35.3445 13.2677 38.666C13.3155 38.7139 13.3825 38.7713 13.4496 38.7618C13.5166 38.7618 13.5548 38.6948 13.5836 38.6373C14.2345 37.5557 13.9569 36.139 14.4259 34.9617C14.7896 34.0523 15.5937 33.3535 16.4839 32.9515C17.3741 32.5495 18.3696 32.4059 19.3555 32.3485C23.2418 32.1187 27.0898 33.1238 30.976 33.143C31.244 33.143 31.5695 33.1142 31.7035 32.8749L31.7226 32.8941Z" fill="#FAD22A"/>
<mask id="mask0_4115_2622" style="mask-type:luminance" maskUnits="userSpaceOnUse" x="11" y="29" width="21" height="10">
<path d="M31.7226 32.8946C31.7801 32.7893 31.7896 32.6744 31.7801 32.5596C31.7322 31.8321 31.1004 31.296 30.4591 30.9419C28.2767 29.7166 25.6635 29.5731 23.1652 29.4391C21.0306 29.3146 18.8482 29.1806 16.7998 29.7645C13.0954 30.8174 10.1185 35.345 13.2677 38.6665C13.3155 38.7144 13.3825 38.7718 13.4496 38.7623C13.5166 38.7623 13.5548 38.6953 13.5836 38.6378C14.2345 37.5562 13.9569 36.1395 14.4259 34.9621C14.7896 34.0528 15.5937 33.354 16.4839 32.952C17.3741 32.55 18.3696 32.4064 19.3555 32.349C23.2418 32.1192 27.0898 33.1243 30.976 33.1434C31.244 33.1434 31.5695 33.1147 31.7035 32.8754L31.7226 32.8946Z" fill="white"/>
</mask>
<g mask="url(#mask0_4115_2622)">
<path d="M18.2306 29.8794C18.2306 29.8794 15.5217 31.3344 16.5076 32.9616C17.2064 34.1198 13.2531 37.2786 13.2531 37.2786L10.2188 34.7803L14.8038 29.9655L18.2402 29.8794" fill="#EFEEDF"/>
<path d="M27.1425 29.8123C27.1425 29.8123 29.8131 32.2915 25.1802 32.0235C21.6003 31.8224 31.7275 32.8849 31.7275 32.8849L31.7945 31.4396L29.4781 30.2335L27.1425 29.8027" fill="#F6A42B"/>
</g>
<path d="M31.7226 32.8941C31.7801 32.7888 31.7896 32.6739 31.7801 32.5591C31.7322 31.8316 31.1004 31.2956 30.4591 30.9414C28.2767 29.7162 25.6635 29.5726 23.1652 29.4386C21.0306 29.3141 18.8482 29.1801 16.7998 29.764C13.0954 30.8169 10.1185 35.3445 13.2677 38.666C13.3155 38.7139 13.3825 38.7713 13.4496 38.7618C13.5166 38.7618 13.5548 38.6948 13.5836 38.6373C14.2345 37.5557 13.9569 36.139 14.4259 34.9617C14.7896 34.0523 15.5937 33.3535 16.4839 32.9515C17.3741 32.5495 18.3696 32.4059 19.3555 32.3485C23.2418 32.1187 27.0898 33.1238 30.976 33.143C31.244 33.143 31.5695 33.1142 31.7035 32.8749L31.7226 32.8941Z" stroke="#171714" stroke-width="1.3" stroke-linecap="round" stroke-linejoin="round"/>
<path d="M35.18 37.1825C35.18 37.1825 35.1513 37.2495 35.1417 37.2782C34.6727 38.3694 33.8495 39.2884 32.8827 39.9871C30.6045 41.6527 27.5223 42.1408 24.8326 41.2889C23.5308 40.8773 22.3438 40.1881 21.0899 39.6617C19.97 39.1926 18.7735 38.8385 17.5578 38.8002C17.3759 38.8002 16.591 38.8289 16.9835 38.4556C17.2611 38.1876 17.9215 38.1014 18.2757 37.9961C19.0798 37.7568 19.903 37.5271 20.7357 37.6133C21.5589 37.709 22.3151 38.111 23.0713 38.446C25.1485 39.3458 27.5702 39.7 29.6952 38.9055C30.2791 38.6853 30.8438 38.379 31.2842 37.9387C31.7245 37.4984 32.0212 36.8858 32.0116 36.2636C32.0116 36.0722 31.9829 35.8711 32.0595 35.6893C32.2318 35.3255 32.7295 35.2968 33.1316 35.2585C33.7729 35.1819 34.3855 34.9044 34.8641 34.464C34.979 34.3587 35.1226 34.2247 35.2757 34.2535C35.4767 34.2917 35.5437 34.5406 35.5629 34.7416C35.6203 35.5648 35.4863 36.4072 35.18 37.1729V37.1825Z" fill="#FAD22A"/>
<mask id="mask1_4115_2622" style="mask-type:luminance" maskUnits="userSpaceOnUse" x="16" y="34" width="20" height="8">
<path d="M35.1878 37.182C35.1878 37.182 35.1591 37.249 35.1495 37.2777C34.6805 38.369 33.8573 39.2879 32.8905 39.9866C30.6124 41.6522 27.5301 42.1404 24.8404 41.2884C23.5386 40.8768 22.3517 40.1877 21.0977 39.6612C19.9778 39.1922 18.7813 38.838 17.5656 38.7997C17.3838 38.7997 16.5988 38.8284 16.9913 38.4551C17.2689 38.1871 17.9294 38.1009 18.2835 37.9956C19.0876 37.7563 19.9108 37.5266 20.7435 37.6128C21.5667 37.7085 22.3229 38.1105 23.0791 38.4455C25.1563 39.3453 27.578 39.6995 29.703 38.905C30.2869 38.6848 30.8517 38.3785 31.292 37.9382C31.7323 37.4979 32.029 36.8853 32.0194 36.2631C32.0194 36.0717 31.9907 35.8706 32.0673 35.6888C32.2396 35.325 32.7373 35.2963 33.1394 35.258C33.7807 35.1815 34.3933 34.9039 34.8719 34.4636C34.9868 34.3583 35.1304 34.2243 35.2835 34.253C35.4845 34.2913 35.5515 34.5401 35.5707 34.7411C35.6281 35.5643 35.4941 36.4067 35.1878 37.1724V37.182Z" fill="white"/>
</mask>
<g mask="url(#mask1_4115_2622)">
<path d="M28.7447 39.1831C28.7447 39.1831 28.6777 41.6431 31.9801 39.767C34.7464 38.1972 31.4919 40.8199 31.4919 40.8199L26.4187 41.8059L21.8815 39.7957L18.1484 38.3791L21.3072 38.0728L23.9108 38.8672C23.9108 38.8672 25.7391 39.3554 25.7774 39.3554C25.8157 39.3554 28.7447 39.1927 28.7447 39.1927" fill="#F6A42B"/>
</g>
<path d="M35.18 37.1825C35.18 37.1825 35.1513 37.2495 35.1417 37.2782C34.6727 38.3694 33.8495 39.2884 32.8827 39.9871C30.6045 41.6527 27.5223 42.1408 24.8326 41.2889C23.5308 40.8773 22.3438 40.1881 21.0899 39.6617C19.97 39.1926 18.7735 38.8385 17.5578 38.8002C17.3759 38.8002 16.591 38.8289 16.9835 38.4556C17.2611 38.1876 17.9215 38.1014 18.2757 37.9961C19.0798 37.7568 19.903 37.5271 20.7357 37.6133C21.5589 37.709 22.3151 38.111 23.0713 38.446C25.1485 39.3458 27.5702 39.7 29.6952 38.9055C30.2791 38.6853 30.8438 38.379 31.2842 37.9387C31.7245 37.4984 32.0212 36.8858 32.0116 36.2636C32.0116 36.0722 31.9829 35.8711 32.0595 35.6893C32.2318 35.3255 32.7295 35.2968 33.1316 35.2585C33.7729 35.1819 34.3855 34.9044 34.8641 34.464C34.979 34.3587 35.1226 34.2247 35.2757 34.2535C35.4767 34.2917 35.5437 34.5406 35.5629 34.7416C35.6203 35.5648 35.4863 36.4072 35.18 37.1729V37.1825Z" stroke="#171714" stroke-width="1.3" stroke-linecap="round" stroke-linejoin="round"/>
<path d="M35.1111 26.5582C34.91 26.4434 34.6803 26.3572 34.4506 26.3859C34.2304 26.4147 34.0294 26.5487 33.8475 26.6731C33.1679 27.1421 32.517 27.6495 31.8853 28.1855C31.8183 28.2429 31.7513 28.3099 31.7417 28.3961C31.7417 28.5397 31.9044 28.6162 32.048 28.6641C32.7468 28.8938 33.3689 29.382 33.6848 30.0425C34.0007 30.7029 33.9816 31.5357 33.5604 32.1292C32.8999 33.0577 31.579 33.163 30.4303 33.1438C27.9607 33.096 25.4911 32.8662 23.0311 32.6461C21.1263 32.4833 19.1736 32.3302 17.3261 32.8375C16.2636 33.1342 15.2394 33.6799 14.4545 34.4648C14.0621 34.8572 12.6071 36.7238 13.2389 37.279C13.459 37.4704 13.7941 37.3172 14.0429 37.1641C15.9861 35.9963 18.2642 35.4794 20.5232 35.3358C22.7822 35.1922 25.0508 35.4124 27.3098 35.6038C29.0137 35.7474 30.7462 35.8814 32.4213 35.5368C34.0964 35.1922 35.7332 34.302 36.6043 32.8279C37.1882 31.8324 37.3796 30.6264 37.1403 29.4969C36.901 28.3674 36.2118 27.3527 35.2738 26.6922C35.2164 26.654 35.1493 26.6061 35.0919 26.5678L35.1111 26.5582Z" fill="#FAD22A"/>
<mask id="mask2_4115_2622" style="mask-type:luminance" maskUnits="userSpaceOnUse" x="13" y="26" width="25" height="12">
<path d="M35.1072 26.5587C34.9061 26.4439 34.6764 26.3577 34.4467 26.3864C34.2265 26.4151 34.0255 26.5492 33.8436 26.6736C33.164 27.1426 32.5131 27.6499 31.8814 28.186C31.8144 28.2434 31.7474 28.3104 31.7378 28.3966C31.7378 28.5401 31.9005 28.6167 32.0441 28.6646C32.7429 28.8943 33.365 29.3825 33.6809 30.043C33.9968 30.7034 33.9777 31.5362 33.5565 32.1297C32.896 33.0582 31.5751 33.1635 30.4264 33.1443C27.9568 33.0964 25.4872 32.8667 23.0272 32.6466C21.1224 32.4838 19.1696 32.3307 17.3222 32.838C16.2597 33.1347 15.2355 33.6803 14.4506 34.4653C14.0582 34.8577 12.6032 36.7243 13.235 37.2794C13.4551 37.4709 13.7902 37.3177 14.039 37.1646C15.9822 35.9968 18.2603 35.4799 20.5193 35.3363C22.7783 35.1927 25.0469 35.4129 27.3059 35.6043C29.0097 35.7479 30.7423 35.8819 32.4174 35.5373C34.0925 35.1927 35.7293 34.3025 36.6004 32.8284C37.1843 31.8329 37.3757 30.6269 37.1364 29.4973C36.8971 28.3678 36.2079 27.3532 35.2699 26.6927C35.2124 26.6544 35.1454 26.6066 35.088 26.5683L35.1072 26.5587Z" fill="white"/>
</mask>
<g mask="url(#mask2_4115_2622)">
<path d="M17.5326 33.0388C17.5326 33.0388 14.9482 35.1064 16.585 35.6232C17.4465 35.8913 13.2539 37.2696 13.2539 37.2696L14.4696 34.4555L16.5084 32.9526" fill="#EFEEDF"/>
<path d="M31.7848 32.9624C31.7848 32.9624 34.6468 33.5846 32.4357 35.5277C30.2245 37.4708 36.6187 32.8188 36.6187 32.8188L37.2504 28.5401L35.2786 26.6831H33.8236L32.5601 28.4444L33.2493 30.4258L33.5173 32.6465L31.7656 32.9528" fill="#F6A42B"/>
</g>
<path d="M35.1111 26.5582C34.91 26.4434 34.6803 26.3572 34.4506 26.3859C34.2304 26.4147 34.0294 26.5487 33.8475 26.6731C33.1679 27.1421 32.517 27.6495 31.8853 28.1855C31.8183 28.2429 31.7513 28.3099 31.7417 28.3961C31.7417 28.5397 31.9044 28.6162 32.048 28.6641C32.7468 28.8938 33.3689 29.382 33.6848 30.0425C34.0007 30.7029 33.9816 31.5357 33.5604 32.1292C32.8999 33.0577 31.579 33.163 30.4303 33.1438C27.9607 33.096 25.4911 32.8662 23.0311 32.6461C21.1263 32.4833 19.1736 32.3302 17.3261 32.8375C16.2636 33.1342 15.2394 33.6799 14.4545 34.4648C14.0621 34.8572 12.6071 36.7238 13.2389 37.279C13.459 37.4704 13.7941 37.3172 14.0429 37.1641C15.9861 35.9963 18.2642 35.4794 20.5232 35.3358C22.7822 35.1922 25.0508 35.4124 27.3098 35.6038C29.0137 35.7474 30.7462 35.8814 32.4213 35.5368C34.0964 35.1922 35.7332 34.302 36.6043 32.8279C37.1882 31.8324 37.3796 30.6264 37.1403 29.4969C36.901 28.3674 36.2118 27.3527 35.2738 26.6922C35.2164 26.654 35.1493 26.6061 35.0919 26.5678L35.1111 26.5582Z" stroke="#171714" stroke-width="1.3" stroke-linecap="round" stroke-linejoin="round"/>
<path d="M32.2073 35.6035C32.4562 35.7566 32.3509 36.6277 31.968 37.2977C31.432 38.2549 30.4556 38.6282 30.044 38.7814C29.6899 38.9154 29.2017 39.0398 28.12 39.0685C26.3014 39.1164 24.9038 38.8197 24.7028 38.7814C23.0181 38.4559 19.8881 37.8529 16.892 38.8675C15.1882 39.4419 14.2693 40.2938 14.0491 40.5044C12.91 41.5956 12.3166 42.7729 12.1347 43.3185C11.8284 44.2949 11.7709 44.9458 11.9528 45.6924C12.0485 46.104 12.2495 46.4773 12.0677 46.6975C11.8284 47.0038 11.0913 46.7836 11.0052 46.7549C9.99055 46.439 9.32051 45.6158 9.09078 44.5629C8.86105 43.5291 9.09077 42.4283 9.33965 41.7583C9.96183 40.064 11.0818 39.0494 11.8092 38.3985C12.2304 38.0252 13.7524 36.7234 16.2315 35.9289C18.2991 35.2684 19.9838 35.2876 21.5728 35.3067C22.865 35.3259 25.0474 35.3546 27.2299 35.814C27.2299 35.814 29.0007 36.1873 30.4748 35.9863C31.2023 35.8906 31.5086 35.7853 31.5086 35.7853C31.9489 35.6417 32.0829 35.5077 32.2073 35.5843V35.6035Z" fill="#FAD22A"/>
<mask id="mask3_4115_2622" style="mask-type:luminance" maskUnits="userSpaceOnUse" x="8" y="35" width="25" height="12">
<path d="M32.2034 35.6035C32.4523 35.7566 32.347 36.6277 31.9641 37.2977C31.4281 38.2549 30.4517 38.6282 30.0401 38.7814C29.686 38.9154 29.1978 39.0398 28.1161 39.0685C26.2974 39.1164 24.8999 38.8197 24.6989 38.7814C23.0142 38.4559 19.8842 37.8529 16.8881 38.8675C15.1843 39.4419 14.2654 40.2938 14.0452 40.5044C12.9061 41.5956 12.3127 42.7729 12.1308 43.3185C11.8245 44.2949 11.767 44.9458 11.9489 45.6924C12.0446 46.104 12.2456 46.4773 12.0638 46.6975C11.8245 47.0038 11.0874 46.7836 11.0013 46.7549C9.98665 46.439 9.3166 45.6158 9.08687 44.5629C8.85714 43.5291 9.08687 42.4283 9.33574 41.7583C9.95792 40.064 11.0779 39.0494 11.8053 38.3985C12.2265 38.0252 13.7485 36.7234 16.2276 35.9289C18.2952 35.2684 19.9799 35.2876 21.5688 35.3067C22.8611 35.3259 25.0435 35.3546 27.2259 35.814C27.2259 35.814 28.9968 36.1873 30.4709 35.9863C31.1984 35.8906 31.5047 35.7853 31.5047 35.7853C31.945 35.6417 32.079 35.5077 32.2034 35.5843V35.6035Z" fill="white"/>
</mask>
<g mask="url(#mask3_4115_2622)">
<path d="M16.2405 35.957C16.2405 35.957 12.8233 38.5989 14.776 40.2357C16.499 41.6716 10.7845 47.4052 10.7845 47.4052L8.23828 45.3472L8.99448 40.2549L12.1533 37.2493L16.231 35.957" fill="#EFEEDF"/>
</g>
<path d="M32.2073 35.6035C32.4562 35.7566 32.3509 36.6277 31.968 37.2977C31.432 38.2549 30.4556 38.6282 30.044 38.7814C29.6899 38.9154 29.2017 39.0398 28.12 39.0685C26.3014 39.1164 24.9038 38.8197 24.7028 38.7814C23.0181 38.4559 19.8881 37.8529 16.892 38.8675C15.1882 39.4419 14.2693 40.2938 14.0491 40.5044C12.91 41.5956 12.3166 42.7729 12.1347 43.3185C11.8284 44.2949 11.7709 44.9458 11.9528 45.6924C12.0485 46.104 12.2495 46.4773 12.0677 46.6975C11.8284 47.0038 11.0913 46.7836 11.0052 46.7549C9.99055 46.439 9.32051 45.6158 9.09078 44.5629C8.86105 43.5291 9.09077 42.4283 9.33965 41.7583C9.96183 40.064 11.0818 39.0494 11.8092 38.3985C12.2304 38.0252 13.7524 36.7234 16.2315 35.9289C18.2991 35.2684 19.9838 35.2876 21.5728 35.3067C22.865 35.3259 25.0474 35.3546 27.2299 35.814C27.2299 35.814 29.0007 36.1873 30.4748 35.9863C31.2023 35.8906 31.5086 35.7853 31.5086 35.7853C31.9489 35.6417 32.0829 35.5077 32.2073 35.5843V35.6035Z" stroke="#171714" stroke-width="1.3" stroke-linecap="round" stroke-linejoin="round"/>
<path d="M39.0227 16.8901L29.0391 30.1762L31.1449 31.0568L42.0571 18.5174L39.0227 16.8901Z" fill="#EFEEDF" stroke="#171714" stroke-width="1.3" stroke-linecap="round" stroke-linejoin="round"/>
<path d="M35.6933 34.1867C35.6167 34.4547 35.5401 34.7323 35.4731 35.0004C34.9084 37.3264 35.0041 39.9395 36.3825 41.8922C36.6505 42.2751 37.0621 42.658 37.5216 42.5623C37.847 42.4953 38.0672 42.189 38.1533 41.8731C38.2395 41.5572 38.2012 41.2222 38.182 40.8968C38.0002 38.4559 38.3256 36.0054 38.7851 33.6028C39.0531 32.2053 39.3594 30.8078 39.3785 29.3816C39.3977 27.9553 39.1201 26.4908 38.2969 25.323C37.0908 23.6096 34.8988 22.8343 32.8025 22.7385C31.606 22.6811 30.3712 22.8438 29.2704 23.3416C28.8397 23.5426 28.0069 23.9159 27.7772 24.3562C27.4709 24.9593 28.2366 25.055 28.744 25.0263C30.2468 24.9401 31.7975 25.0263 33.195 25.5814C34.5925 26.1366 35.8369 27.2278 36.3059 28.6636C36.6409 29.6974 36.5643 30.8174 36.3346 31.8703C36.1623 32.6552 35.9134 33.4114 35.6933 34.1867Z" fill="#FAD22A" stroke="#171714" stroke-width="1.3" stroke-linecap="round" stroke-linejoin="round"/>
<path d="M38.2065 16.4499L43.9976 7.28946L40.8771 5.64307L35.7848 15.1481L35.4498 14.9663V14.9471L32.3293 13.3199L23.8867 29.3052L26.2606 29.6785L32.9802 18.9195L31.3242 22.7196H34.0331L35.8997 20.3075L34.2533 22.9111C34.2533 22.9111 36.2443 23.3035 37.1345 24.1459L42.0354 18.5175L39.001 16.8807L38.1874 16.4404L38.2065 16.4499Z" fill="#EFEEDF" stroke="#171714" stroke-width="1.3" stroke-linecap="round" stroke-linejoin="round"/>
</svg>
