<svg width="20" height="20" viewBox="0 0 20 20" fill="none" xmlns="http://www.w3.org/2000/svg">
<path d="M17.3126 2.91165L16.2886 1.88765C16.1986 1.7967 16.0915 1.7245 15.9734 1.67523C15.8553 1.62596 15.7286 1.60059 15.6006 1.60059C15.4727 1.60059 15.346 1.62596 15.2279 1.67523C15.1098 1.7245 15.0026 1.7967 14.9126 1.88765L1.88862 14.9116C1.79768 15.0017 1.72548 15.1088 1.67621 15.2269C1.62693 15.345 1.60156 15.4717 1.60156 15.5996C1.60156 15.7276 1.62693 15.8543 1.67621 15.9724C1.72548 16.0905 1.79768 16.1976 1.88862 16.2876L2.91262 17.3116C3.00208 17.4036 3.10905 17.4766 3.22722 17.5265C3.34539 17.5764 3.47235 17.6021 3.60062 17.6021C3.72889 17.6021 3.85586 17.5764 3.97403 17.5265C4.09219 17.4766 4.19917 17.4036 4.28862 17.3116L17.3126 4.28765C17.4045 4.19819 17.4776 4.09122 17.5275 3.97305C17.5774 3.85488 17.6031 3.72791 17.6031 3.59965C17.6031 3.47138 17.5774 3.34441 17.5275 3.22624C17.4776 3.10807 17.4045 3.0011 17.3126 2.91165Z" stroke="#EFEEDF" stroke-width="1.6" stroke-linecap="round" stroke-linejoin="round"/>
<path d="M11.1992 5.59961L13.5992 7.99961" stroke="#EFEEDF" stroke-width="1.6" stroke-linecap="round" stroke-linejoin="round"/>
<path d="M4 4.79883V7.99883" stroke="#EFEEDF" stroke-width="1.6" stroke-linecap="round" stroke-linejoin="round"/>
<path d="M15.1992 11.1992V14.3992" stroke="#EFEEDF" stroke-width="1.6" stroke-linecap="round" stroke-linejoin="round"/>
<path d="M8 1.59961V3.19961" stroke="#EFEEDF" stroke-width="1.6" stroke-linecap="round" stroke-linejoin="round"/>
<path d="M5.59844 6.39941H2.39844" stroke="#EFEEDF" stroke-width="1.6" stroke-linecap="round" stroke-linejoin="round"/>
<path d="M16.8016 12.7988H13.6016" stroke="#EFEEDF" stroke-width="1.6" stroke-linecap="round" stroke-linejoin="round"/>
<path d="M8.79922 2.39917H7.19922" stroke="#EFEEDF" stroke-width="1.6" stroke-linecap="round" stroke-linejoin="round"/>
</svg>
