<svg width="80" height="37" viewBox="0 0 80 37" fill="none" xmlns="http://www.w3.org/2000/svg">
<g clip-path="url(#clip0_3984_5135)">
<path d="M52.596 8.96629L64.5139 13.9959L63.9724 17.1566L51.6993 11.0108L51.5618 11.3472L50.4664 14.131L47.1315 12.443L48.3829 10.1227L48.9877 9.80123L49.3563 8.22587L49.9728 7.80258L51.5553 5.81036L54.388 4.92663L54.6142 5.34174L52.8339 6.93448L52.596 8.96629Z" fill="#A8A7A1"/>
<path d="M50.5845 17.5297L49.5465 17.4053L30.1389 15L28 22.3299H30.1599V37H36.7339V28.8718H44.1573L43.1298 37H49.8401V22.3299H52L50.5845 17.5297Z" fill="#A8A7A1"/>
<g clip-path="url(#clip1_3984_5135)">
<path d="M24.7444 14.9707L15.2791 13.107L15.2804 10.1331L25.3143 12.9807L27.1063 11.5816L29.6004 11.6285L31.429 13.4754L31.2353 14.0103L29.3338 13.2527L27.6976 14.1875L28.128 16.6831L30.3117 17.1065L30.2818 17.6196L28.0775 18.3829L26.0004 17.5004L24.7444 14.9707Z" fill="#A8A7A1"/>
</g>
<path d="M55.5 33L52 35V35.5L53 37L57.5 37.5L58.5 36L57 34.5L55.5 33Z" fill="#A8A7A1"/>
<path d="M26.3732 34.0398L28.963 37.1289L28.7897 37.598L27.3318 38.6584L22.9374 37.5676L22.5194 35.814L24.4463 34.9269L26.3732 34.0398Z" fill="#A8A7A1"/>
<path d="M59.1538 34L57 35.7778V36.2222L57.6154 37.5556L60.3846 38L61 36.6667L60.0769 35.3333L59.1538 34Z" fill="#A8A7A1"/>
<path d="M23.0775 34.2592L23.4396 37.0284L23.1364 37.3534L21.7768 37.9085L19.4488 36.3443L19.9085 34.9496L21.493 34.6044L23.0775 34.2592Z" fill="#A8A7A1"/>
<path d="M65.3982 38.786L64.8464 36.0482L64.4545 35.8386L62.9886 35.7524L61.2906 37.9847L62.1761 39.1562L63.7871 38.9711L65.3982 38.786Z" fill="#A8A7A1"/>
<path d="M14.3274 37.1201L16.457 35.3134L16.8945 35.3917L18.0984 36.2325L18.0478 39.0367L16.6269 39.4074L15.4771 38.2638L14.3274 37.1201Z" fill="#A8A7A1"/>
</g>
<defs>
<clipPath id="clip0_3984_5135">
<rect width="80" height="37" fill="white"/>
</clipPath>
<clipPath id="clip1_3984_5135">
<rect width="13.942" height="13.84" fill="white" transform="translate(26.0156 4) rotate(60.2602)"/>
</clipPath>
</defs>
</svg>
