<svg width="21" height="17" viewBox="0 0 21 17" fill="none" xmlns="http://www.w3.org/2000/svg">
<path d="M19.1631 3.29222L13.8012 7.80968L10.9196 1.30947C10.7343 0.896843 10.1683 0.896843 9.98303 1.30947L6.33467 9.54593L1.91443 3.96207C1.57996 3.53873 0.916149 3.85489 1.00877 4.39613C1.01392 4.39613 2.63999 14.0366 2.63999 14.0527C2.63999 15.6817 6.13913 17 10.4513 17C14.7635 17 18.2626 15.6817 18.2626 14.0527C18.2626 14.0366 19.9916 3.80666 19.9916 3.80666C20.0739 3.31902 19.5336 2.98677 19.1631 3.29758V3.29222Z" fill="#FBCD1F"/>
<circle cx="10.5" cy="1.5" r="1.5" fill="#FBCD1F"/>
<circle cx="19.5" cy="3.5" r="1.5" fill="#FBCD1F"/>
<circle cx="1.5" cy="3.5" r="1.5" fill="#FBCD1F"/>
</svg>
