<svg width="39" height="39" viewBox="0 0 39 39" fill="none" xmlns="http://www.w3.org/2000/svg">
<path d="M12.8064 29.7794L9.11396 26.0869L6.86985 28.331C6.27083 27.7946 5.48405 27.4638 4.61681 27.4638C2.72139 27.4638 1.18359 29.0016 1.18359 30.897C1.18359 32.6583 2.51575 34.0888 4.21448 34.2944C4.30388 36.1094 5.79697 37.5578 7.62981 37.5578C9.46264 37.5578 11.063 36.02 11.063 34.1246C11.063 33.3557 10.8037 32.6583 10.3746 32.095L12.8064 29.7794Z" fill="#EFEEDF"/>
<mask id="mask0_2695_10269" style="mask-type:luminance" maskUnits="userSpaceOnUse" x="1" y="26" width="12" height="12">
<path d="M12.6229 29.6925L8.93036 26L6.68626 28.2441C6.08723 27.7077 5.30046 27.3769 4.43321 27.3769C2.53779 27.3769 1 28.9147 1 30.8101C1 32.5714 2.33216 34.0019 4.03088 34.2075C4.12029 36.0225 5.61338 37.4709 7.44621 37.4709C9.27905 37.4709 10.8794 35.9331 10.8794 34.0376C10.8794 33.2688 10.6201 32.5714 10.191 32.0081L12.6229 29.6925Z" fill="white"/>
</mask>
<g mask="url(#mask0_2695_10269)">
<path d="M10.6835 26.5101L7.5632 29.7376C7.08935 30.2204 6.32045 29.9969 5.81978 29.541C4.85418 28.6826 3.88859 29.0492 3.42368 29.3174C2.61008 29.7913 1.68025 31.1145 1.86801 33.0904C2.05576 35.0663 0.4375 32.7149 0.4375 32.7149L0.57161 27.6277C0.57161 27.6277 9.35133 25.1869 9.89671 25.2584C10.4421 25.3299 10.6835 26.5101 10.6835 26.5101Z" fill="#EFEEDF"/>
</g>
<path d="M12.8064 29.7794L9.11396 26.0869L6.86985 28.331C6.27083 27.7946 5.48405 27.4638 4.61681 27.4638C2.72139 27.4638 1.18359 29.0016 1.18359 30.897C1.18359 32.6583 2.51575 34.0888 4.21448 34.2944C4.30388 36.1094 5.79697 37.5578 7.62981 37.5578C9.46264 37.5578 11.063 36.02 11.063 34.1246C11.063 33.3557 10.8037 32.6583 10.3746 32.095L12.8064 29.7794Z" stroke="#171714" stroke-width="1.3" stroke-miterlimit="10"/>
<path d="M10.729 23.3864C10.0138 22.6711 10.0227 21.5089 10.7559 20.7847C11.489 20.0605 11.8198 18.4601 11.8198 17.4409C11.8466 12.3179 13.6616 6.73889 17.9978 3.59178C22.8526 0.0781008 30.3448 0.33738 34.5648 4.55737C38.3825 8.37503 38.9905 14.5709 36.5228 19.381C35.5125 21.3479 33.9747 22.993 32.1508 24.2268C30.327 25.4606 28.2527 26.2921 26.1427 26.8554C25.2218 27.1057 24.301 27.2935 23.3622 27.4544C22.3251 27.6243 21.2432 27.6868 20.2598 28.1071C19.7591 28.3216 19.3121 28.6346 18.8203 28.9028C17.9441 29.3856 16.9607 29.618 16.1918 28.8491L10.729 23.3864Z" fill="#F6A42B"/>
<mask id="mask1_2695_10269" style="mask-type:luminance" maskUnits="userSpaceOnUse" x="10" y="1" width="28" height="29">
<path d="M10.729 23.3859C10.0138 22.6707 10.0227 21.5084 10.7559 20.7842C11.489 20.06 11.8198 18.4596 11.8198 17.4404C11.8466 12.3174 13.6616 6.7384 17.9978 3.59129C22.8526 0.0776125 30.3448 0.336892 34.5648 4.55688C38.3825 8.37454 38.9905 14.5704 36.5228 19.3805C35.5125 21.3474 33.9747 22.9925 32.1508 24.2263C30.327 25.4601 28.2527 26.2916 26.1427 26.8549C25.2218 27.1052 24.301 27.293 23.3622 27.4539C22.3251 27.6238 21.2432 27.6864 20.2598 28.1066C19.7591 28.3211 19.3121 28.6341 18.8203 28.9023C17.9441 29.3851 16.9607 29.6175 16.1918 28.8486L10.729 23.3859Z" fill="white"/>
</mask>
<g mask="url(#mask1_2695_10269)">
<path d="M14.9688 27.8293L16.7479 26.0501C17.3917 25.4064 18.3126 25.4689 19.2245 25.3259C22.8902 24.7537 27.1906 23.0997 31.2765 19.0674C35.3624 15.0352 36.4889 3.97561 28.7105 2.20536C13.7528 -1.19209 49.9357 6.14819 49.9357 6.14819L27.9327 29.7068C27.9327 29.7068 19.8325 29.7068 19.1798 29.9482C18.5271 30.1896 14.9688 27.8203 14.9688 27.8203V27.8293Z" fill="#7F3912"/>
<path d="M16.4517 4.54754C16.4517 4.54754 13.8321 9.67948 14.1808 15.8932C14.5295 22.107 10.1933 24.8965 10.1933 24.8965L6.74219 22.1428C6.74219 22.1428 11.436 4.41343 11.7937 4.27932C12.1513 4.14521 16.4607 4.55648 16.4607 4.55648L16.4517 4.54754Z" fill="#EFEEDF"/>
</g>
<path d="M10.729 23.3864C10.0138 22.6711 10.0227 21.5089 10.7559 20.7847C11.489 20.0605 11.8198 18.4601 11.8198 17.4409C11.8466 12.3179 13.6616 6.73889 17.9978 3.59178C22.8526 0.0781008 30.3448 0.33738 34.5648 4.55737C38.3825 8.37503 38.9905 14.5709 36.5228 19.381C35.5125 21.3479 33.9747 22.993 32.1508 24.2268C30.327 25.4606 28.2527 26.2921 26.1427 26.8554C25.2218 27.1057 24.301 27.2935 23.3622 27.4544C22.3251 27.6243 21.2432 27.6868 20.2598 28.1071C19.7591 28.3216 19.3121 28.6346 18.8203 28.9028C17.9441 29.3856 16.9607 29.618 16.1918 28.8491L10.729 23.3864Z" stroke="#171714" stroke-width="1.3" stroke-miterlimit="10"/>
<path d="M11.6585 24.3164L10.8538 23.5117C10.4515 23.1094 9.80778 23.1094 9.40545 23.5117L8.6455 24.2717C8.24317 24.674 8.24317 25.3177 8.6455 25.72L13.536 30.6106C13.9384 31.0129 14.5821 31.0129 14.9844 30.6106L15.7444 29.8506C16.1467 29.4483 16.1467 28.8046 15.7444 28.4022L14.2602 26.9181L13.6612 26.3191L11.6674 24.3253L11.6585 24.3164Z" fill="#F6A42B"/>
<mask id="mask2_2695_10269" style="mask-type:luminance" maskUnits="userSpaceOnUse" x="8" y="23" width="9" height="8">
<path d="M11.6585 24.3164L10.8538 23.5117C10.4515 23.1094 9.80778 23.1094 9.40545 23.5117L8.6455 24.2717C8.24317 24.674 8.24317 25.3177 8.6455 25.72L13.536 30.6106C13.9384 31.0129 14.5821 31.0129 14.9844 30.6106L15.7444 29.8506C16.1467 29.4483 16.1467 28.8046 15.7444 28.4022L14.2602 26.9181L13.6612 26.3191L11.6674 24.3253L11.6585 24.3164Z" fill="white"/>
</mask>
<g mask="url(#mask2_2695_10269)">
<path d="M11.7227 30.2436L14.8608 27.1055L16.193 28.8489L16.3897 31.0483L14.387 31.4596L11.7227 30.2436Z" fill="#7F3912"/>
<path d="M11.2838 23.8065L8.69998 26.3904L8.13672 24.7453L10.3987 23.2075L11.2838 23.8065Z" fill="#EFEEDF"/>
</g>
<path d="M11.6585 24.3164L10.8538 23.5117C10.4515 23.1094 9.80778 23.1094 9.40545 23.5117L8.6455 24.2717C8.24317 24.674 8.24317 25.3177 8.6455 25.72L13.536 30.6106C13.9384 31.0129 14.5821 31.0129 14.9844 30.6106L15.7444 29.8506C16.1467 29.4483 16.1467 28.8046 15.7444 28.4022L14.2602 26.9181L13.6612 26.3191L11.6674 24.3253L11.6585 24.3164Z" stroke="#171714" stroke-width="1.3" stroke-miterlimit="10" stroke-linecap="round"/>
<path d="M29.0217 19.0681C29.6982 19.0681 30.2466 18.8199 30.2466 18.5138C30.2466 18.2077 29.6982 17.9595 29.0217 17.9595C28.3453 17.9595 27.7969 18.2077 27.7969 18.5138C27.7969 18.8199 28.3453 19.0681 29.0217 19.0681Z" fill="#171714"/>
<path d="M14.5554 17.1106C15.0887 17.1106 15.521 16.9144 15.521 16.6725C15.521 16.4305 15.0887 16.2344 14.5554 16.2344C14.0222 16.2344 13.5898 16.4305 13.5898 16.6725C13.5898 16.9144 14.0222 17.1106 14.5554 17.1106Z" fill="#EFEEDF"/>
<path d="M16.0398 14.5442C16.5731 14.5442 17.0054 14.348 17.0054 14.1061C17.0054 13.8641 16.5731 13.668 16.0398 13.668C15.5065 13.668 15.0742 13.8641 15.0742 14.1061C15.0742 14.348 15.5065 14.5442 16.0398 14.5442Z" fill="#171714"/>
<path d="M32.6721 17.2087C33.4424 17.2087 34.0668 16.9164 34.0668 16.556C34.0668 16.1955 33.4424 15.9033 32.6721 15.9033C31.9018 15.9033 31.2773 16.1955 31.2773 16.556C31.2773 16.9164 31.9018 17.2087 32.6721 17.2087Z" fill="#171714"/>
</svg>
