<svg width="184" height="144" viewBox="0 0 184 144" fill="none" xmlns="http://www.w3.org/2000/svg">
<path d="M132.397 66.8109L147.121 9.54492H125.516L118.153 38.1779H115.356L122.72 9.54492H101.115L88.8426 57.268H61.6465L64.1009 47.7229H42.4962L40.0417 57.268L35.1328 76.3559H83.9337L81.4792 85.901H103.086L110.45 57.268H113.244L105.881 85.901L127.485 85.9053L122.579 105L144.186 104.989L154.001 66.8217L132.397 66.8109Z" fill="#EFEEDF"/>
<path d="M43.2097 44.9339H64.8166L69.0084 28.633H71.803L65.1567 54.4789H86.7637L98.3188 9.54505L30.3633 0L23 28.633H47.4015L43.2097 44.9339Z" fill="#EFEEDF"/>
<path d="M10.944 140.35L9.054 140.998C8.568 141.16 8.352 141.052 8.352 140.584V125.356H10.944V130.342H12.438V125.086H15.03V141.07L13.14 141.718C12.654 141.88 12.438 141.772 12.438 141.304V132.862H10.944V140.35ZM7.632 135.004V137.344H1.296V126.112H4.032V135.004H7.632ZM30.5831 141.016L28.5671 141.718C28.0631 141.898 27.8471 141.772 27.8471 141.304V125.086H30.5831V130.756H33.1571V133.168H30.5831V141.016ZM22.8791 128.632H17.3531V126.292H25.6151V137.596L23.5991 138.298C23.0951 138.478 22.8791 138.352 22.8791 137.884V128.632ZM45.2895 141.52H39.4755V136.858H42.1755V136.192H39.4755V134.122H44.9295V138.712H42.2295V139.45H45.2895V141.52ZM43.5435 125.428V128.02L47.7195 131.602L45.8655 133.348L42.1575 130.108L38.2875 133.528L36.4515 131.782L40.7715 128.02V125.428H43.5435ZM51.8055 139.288C51.8055 140.476 51.1215 141.664 49.0875 141.664H48.2595C46.2255 141.664 45.5415 140.476 45.5415 139.288C45.5415 138.1 46.2255 136.912 48.2595 136.912H49.0875C51.1215 136.912 51.8055 138.1 51.8055 139.288ZM51.4275 132.736L49.4115 133.438C48.9075 133.618 48.6915 133.492 48.6915 133.024V125.086H51.4275V132.736ZM51.9675 136.588H45.3795V134.626H47.2515V133.798H50.0955V134.626H51.9675V136.588ZM49.4835 139.288C49.4835 139 49.2675 138.802 48.9435 138.802H48.4035C48.0795 138.802 47.8635 139 47.8635 139.288C47.8635 139.576 48.0795 139.774 48.4035 139.774H48.9435C49.2675 139.774 49.4835 139.576 49.4835 139.288ZM63.1467 133.978C63.1467 136.912 61.1847 138.136 58.7367 138.136C56.2887 138.136 54.3267 136.912 54.3267 133.978V130.09C54.3267 127.156 56.2887 125.932 58.7367 125.932C61.1847 125.932 63.1467 127.156 63.1467 130.09V130.666H65.0727V125.086H67.8087V141.016L65.7927 141.718C65.2887 141.898 65.0727 141.772 65.0727 141.304V133.078H63.1467V133.978ZM60.4107 134.086V129.982C60.4107 128.794 59.6907 128.272 58.7367 128.272C57.7827 128.272 57.0627 128.794 57.0627 129.982V134.086C57.0627 135.274 57.7827 135.796 58.7367 135.796C59.6907 135.796 60.4107 135.274 60.4107 134.086ZM79.5998 134.842C79.5998 137.758 77.6018 139.036 75.1358 139.036C72.6698 139.036 70.6718 137.758 70.6718 134.842V134.122C70.6718 131.206 72.6698 129.928 75.1358 129.928C77.6018 129.928 79.5998 131.206 79.5998 134.122V134.842ZM83.7218 141.016L81.7058 141.718C81.2018 141.898 80.9858 141.772 80.9858 141.304V125.086H83.7218V131.656H86.2958V134.068H83.7218V141.016ZM79.9418 129.316H70.2038V127.048H73.7318V125.158H76.5398V127.048H79.9418V129.316ZM76.8638 134.932V134.032C76.8638 132.862 76.1258 132.268 75.1358 132.268C74.1458 132.268 73.4078 132.862 73.4078 134.032V134.932C73.4078 136.102 74.1458 136.696 75.1358 136.696C76.1258 136.696 76.8638 136.102 76.8638 134.932ZM102.227 135.472H86.3149V133.132H102.227V135.472ZM100.517 129.478V131.818H88.3849V125.428H91.1569V129.478H100.517ZM100.517 141.304H88.3849V136.354H91.1569V138.964H100.517V141.304ZM117.51 141.52H105.828V136.714H114.45V135.976H105.828V133.87H117.24V138.604H108.618V139.414H117.51V141.52ZM109.248 128.128H103.434V125.788H111.984V128.074H114.504V125.086H117.24V132.664L115.224 133.366C114.72 133.546 114.504 133.42 114.504 132.952V130.486H111.984V132.448L109.968 133.15C109.464 133.33 109.248 133.204 109.248 132.736V128.128ZM135.42 125.428V127.768L138.102 130.774L136.158 132.268L133.944 129.766L131.658 131.728H132.342V132.808H138.912V135.076H123V132.808H129.57V131.728H130.236L127.968 129.766L125.754 132.268L123.81 130.774L126.492 127.768V125.428H129.3V127.66L130.956 129.082L132.612 127.66V125.428H135.42ZM136.932 141.016L134.916 141.718C134.412 141.898 134.196 141.772 134.196 141.304V138.154H124.8V135.814H136.932V141.016ZM155.257 140.494L153.835 140.998C153.349 141.178 153.133 141.052 153.133 140.584V125.356H155.257V130.702H156.049V125.086H158.173V141.268L156.751 141.718C156.265 141.88 156.049 141.772 156.049 141.304V133.222H155.257V140.494ZM148.003 137.992H143.719V126.256H145.609V129.838H146.113V126.256H148.003V137.992ZM152.683 137.992H148.399V126.256H150.289V129.838H150.793V126.256H152.683V137.992ZM146.113 135.688V132.106H145.609V135.688H146.113ZM150.793 135.688V132.106H150.289V135.688H150.793ZM175.598 139.9H159.686V137.524H165.068V132.628H167.84V137.524H175.598V139.9ZM170.792 128.578H161.576V126.238H173.528V134.95L171.512 135.652C171.008 135.832 170.792 135.706 170.792 135.238V128.578ZM181.089 125.68L180.729 136.48H178.209L177.849 125.68H181.089ZM180.909 141.16H178.029V138.28H180.909V141.16Z" fill="#EFEEDF"/>
</svg>
